<svg width="1049" height="831" viewBox="0 0 1049 831" fill="none" xmlns="http://www.w3.org/2000/svg">
<path d="M340.478 139.673C343.202 128.527 344.938 118.691 348.409 107.486C364.743 54.7564 409.553 -2.41572 469.977 0.0788137C484.258 0.668463 503.566 9.12072 512.677 20.2481C515.494 23.5705 520.178 30.192 519.376 34.6703C517.949 42.6677 506.554 38.8108 501.38 38.1972C463.188 33.6772 441.911 66.1128 433.961 99.1136C443.58 97.4977 451.719 96.5756 460.722 101.074C460.945 95.2163 461.075 82.3646 468.702 81.8423C471.481 83.2482 473.908 88.2789 477.124 91.1316C484.32 97.5142 491.651 101.628 498.463 108.475C514.9 99.2563 547.824 97.8143 556.61 118.078C560.59 108.836 565.642 101.041 570.962 92.5552C605.013 38.5138 667.529 -8.98819 734.417 13.4442C748.31 18.1045 780.738 37.787 775.589 57.9851C773.274 67.0619 750.135 56.9974 742.879 56.4984C712.233 54.3902 686.321 74.0024 669.17 97.7775C657.469 113.473 651.334 127.341 644.408 145.537C659.477 155.838 673.793 173.102 678.079 191.161C712.791 195.375 731.888 222.292 757.428 242.727C783.916 263.959 815.523 273.492 849.163 274.044C863.265 274.275 890.628 264.708 901.589 274.115C917.95 288.156 899.825 317.399 889.263 329.941C868.169 354.99 835.784 371.933 803.026 374.722C765.137 377.682 732.997 367.831 704.071 343.367C709.264 371.404 703.6 397.471 697.287 424.656C695.266 433.37 690.662 441.63 685.659 448.966C685.145 449.7 684.141 451.237 683.608 451.849C686.419 461.114 689.633 471.082 694.458 479.477C703.496 495.207 711.989 494.564 712.748 514.5C729.856 514.611 747.943 533.066 759.546 544.81C804.955 590.794 841.913 660.192 841.454 725.966C841.338 742.786 839.268 768.766 826.496 781.349C821.622 786.156 814.954 789.156 808.488 791.146C790.462 805.504 726.519 816.134 702.945 819C685.61 820.99 668.215 822.422 650.783 823.298C643.331 823.69 625.323 824.921 618.232 823.408C615.789 823.592 599.82 827.847 593.985 828.723C568.324 832.562 539.6 829.268 515.433 819.814C508.048 816.924 503.205 812.025 500.524 804.757C498.529 805.4 495.729 806.276 493.625 806.331C473.034 806.894 452.373 806.6 431.772 806.558C426.954 806.551 420.334 806.686 415.666 806.092C401.734 806.013 381.209 804.151 368.772 798.169C354.916 792.279 353.899 791.893 347.833 777.987C336.731 788.844 332.559 790.987 318.126 796.448L316.448 797.318C315.094 797.734 312.753 798.536 311.46 798.794C305.168 801.788 291.922 802.927 284.801 803.086C281.116 804.176 265.827 804.457 261.512 804.488C232.261 804.666 186.452 803.6 160.243 789.676C145.803 783.706 133.329 776.083 125.744 762.233C109.031 731.618 106.853 702.466 115.099 668.507C125.614 625.199 163.617 575.008 213.917 587.371C242.435 595.129 253.369 623.136 256.51 649.924C257.128 655.196 257.069 673.24 262.665 674.202C265.476 670.51 267.133 666.132 269.621 662.225C284.88 638.413 301.768 614.931 320.496 593.702C333.382 579.093 349.022 566.124 364.512 554.423C325.937 547.136 281.941 521.799 259.658 489.445C238.569 458.83 228.841 419.162 242.887 383.437C247.505 371.693 255.128 362.337 258.73 351.638C263.037 338.843 263.412 321.407 265.661 308.014C246.769 308.912 230.761 306.453 213.713 297.841C192.73 287.195 176.866 268.611 169.648 246.216C164.201 229.489 159.938 196.327 175.347 182.578C176.734 181.339 180.277 180.417 182.174 179.888C193.839 182.56 196.994 188.643 206.405 195.604C212.451 200.047 219.152 203.516 226.269 205.89C248.087 213.058 270.745 207.557 290.684 197.542C304.315 172.22 316.349 156.316 340.478 139.673Z" fill="#FEFBF4"/>
<path d="M675.697 461.12C675.385 461.953 682.206 453.968 683.608 451.849C686.419 461.114 689.633 471.082 694.458 479.477C703.496 495.207 711.989 494.564 712.748 514.5C729.856 514.611 747.943 533.066 759.546 544.81C804.955 590.794 841.913 660.192 841.454 725.966C841.338 742.786 839.268 768.766 826.496 781.349C821.622 786.156 814.954 789.156 808.488 791.146C790.461 805.504 726.519 816.134 702.945 819C685.61 820.99 668.215 822.422 650.783 823.298C643.331 823.69 625.323 824.921 618.232 823.408C615.789 823.592 599.82 827.847 593.985 828.723C568.324 832.562 539.6 829.268 515.433 819.814C508.048 816.924 503.205 812.025 500.524 804.757C498.529 805.4 495.729 806.276 493.625 806.331C473.034 806.894 452.373 806.6 431.772 806.558C426.954 806.551 420.334 806.686 415.666 806.092C411.216 803.141 385.407 805.076 369.78 797.146C364.307 788.739 359.383 779.145 358.094 769.06C357.527 764.621 360.019 758.908 356.293 755.669C352.228 756.587 352.153 761.657 349.105 763.96C346.801 762.227 345.792 756.698 345.151 753.826C339.803 729.848 341.834 704.523 346.388 680.582C346.516 680.153 346.108 678.531 345.773 678.157C342.575 674.563 350.167 665.091 347.265 661.833C336.934 665.532 326.112 708.693 312.933 715.159C310.735 716.237 311.213 715.894 308.782 715.085C305.77 715.355 304.703 714.424 301.493 714.149L300.14 711.099C295.074 696.288 284.618 687.005 272.006 678.659C294.381 642.833 319.981 605.954 351.475 577.396C358.184 571.316 367.111 564.869 374.453 559.548C378.24 557.521 379.011 557.876 383.196 558.991C384.975 558.384 402.142 559.542 406.554 559.187C414.608 558.531 418.17 558.146 426.449 556.364L426.574 550.02C433.694 549.592 440.499 549.426 447.649 548.771C450.323 547.167 462.146 549.561 466.345 549.763C474.989 550.18 497.755 542.875 504.772 545.948C507.571 550.608 511.214 550.688 516.394 550.688C518.966 550.449 519.878 550.363 522.425 550.547C536.863 548.985 565.562 539.991 578.5 532.723C579.167 532.465 579.835 532.19 580.496 531.902C609.311 519.117 651.144 488.894 662.723 459.748C664.088 462.846 664.78 465.528 667.878 466.857C671.827 466.49 673.015 464.212 675.697 461.12Z" fill="#FEFBF4"/>
<path d="M447.649 548.771C450.323 547.167 462.146 549.561 466.345 549.763C474.989 550.18 497.755 542.875 504.772 545.948C507.571 550.608 511.214 550.688 516.394 550.688C518.966 550.449 519.878 550.363 522.425 550.547C530.532 571.892 529.062 592.49 519.817 613.4C516.663 620.521 504.705 642.393 493.928 638.364C491.223 637.353 488.696 630.3 487.521 627.489C483.022 637.151 463.813 676.118 455.558 679.027C454.782 679.302 454.658 679.321 453.933 679.504C448.047 675.445 432.63 642.974 427.747 634.133C417.295 648.559 416.379 658.613 399.156 641.921C394.483 636.282 391.45 631.083 389.067 624.213C380.844 626.209 383.953 619.78 377.802 618.439C363.007 611.434 366.42 586.189 370.116 573.404C371.309 569.277 373.382 564.654 374.238 560.613L374.452 559.548C378.24 557.521 379.011 557.876 383.196 558.991C384.975 558.384 402.142 559.542 406.554 559.187C414.608 558.531 418.17 558.146 426.449 556.364L426.574 550.02C433.694 549.592 440.499 549.426 447.649 548.771Z" fill="#FEFBF4"/>
<path d="M447.649 548.771C450.323 547.167 462.146 549.561 466.345 549.763C474.989 550.18 497.755 542.875 504.772 545.948C507.571 550.608 511.214 550.688 516.394 550.688C517.925 569.167 521.317 574.353 516.982 594.125C513.045 587.059 508.073 582.117 500.596 579.044C498.189 585.442 496.023 591.565 492.972 597.7C487.838 588.253 490.304 579.827 479.88 571.818C460.821 569.179 452.161 574.427 434.3 575.988C420.802 577.133 407.341 573.147 394.044 573.239C390.391 573.263 382.259 576.356 377.605 577.115C379.194 570.973 381.625 565.463 383.196 558.991C384.975 558.384 402.142 559.542 406.554 559.187C414.608 558.531 418.17 558.146 426.449 556.364L426.574 550.02C433.694 549.592 440.499 549.426 447.649 548.771Z" fill="#FBE7CE"/>
<path d="M447.649 548.771C445.578 552.078 430.442 555.421 426.449 556.364L426.574 550.02C433.694 549.592 440.499 549.426 447.649 548.771Z" fill="#834B20"/>
<path d="M516.394 550.688C518.966 550.449 519.878 550.363 522.425 550.547C530.532 571.892 529.062 592.49 519.817 613.4C516.663 620.521 504.705 642.393 493.928 638.364C491.223 637.353 488.696 630.3 487.521 627.489C483.022 637.151 463.813 676.118 455.558 679.027C454.782 679.302 454.658 679.321 453.933 679.504C448.047 675.445 432.63 642.974 427.747 634.133C417.295 648.558 416.379 658.613 399.156 641.921C394.483 636.282 391.45 631.083 389.067 624.213C380.844 626.209 383.953 619.78 377.802 618.439C363.007 611.434 366.42 586.189 370.116 573.404C371.309 569.277 373.382 564.654 374.238 560.613L374.452 559.548C378.24 557.521 379.011 557.876 383.196 558.991C381.625 565.463 379.194 570.973 377.605 577.115C375.242 588.951 373.069 599.121 378.601 610.455C381.417 608.14 388.863 601.276 391.99 601.197C393.204 606.432 393.038 612.935 394.619 617.753C398.16 628.536 403.503 636.325 412.724 642.925C417.728 635.865 422.685 627.844 429.874 622.976C437.401 638.676 447.082 653.794 455.326 670.081C464.344 655.502 473.185 640.103 481.512 625.052C483.914 620.711 483.798 614.857 487.492 613.847C490.267 614.937 494.491 626.828 496.92 630.869C508.673 620.05 513.461 609.72 516.982 594.125C521.317 574.353 517.925 569.167 516.394 550.688Z" fill="#7A4517"/>
<path d="M386.505 613.026C387.255 616.755 387.91 620.607 389.067 624.213C380.844 626.209 383.953 619.78 377.802 618.439C381.808 617.313 383.446 615.861 386.505 613.026Z" fill="#FBE7CE"/>
<path d="M513.712 773.989C520.184 761.596 523.129 756.624 532.467 746.454C538.327 746.888 544.829 746.901 550.554 748.052C578.212 753.587 610.125 782.476 612.752 811.652L612.587 815.816C615.128 816.746 616.591 817.046 618.563 818.804C619.5 820.91 619.561 821.265 618.232 823.408C615.789 823.592 599.82 827.847 593.985 828.723C568.323 832.562 539.6 829.268 515.433 819.814C508.048 816.924 503.205 812.025 500.524 804.757C500.658 794.942 503.56 789.352 508.134 781.018C509.475 780.247 516.473 778.508 518.157 778.459C520.258 775.226 525.493 769.36 526.136 766.403L525.278 765.986C520.784 767.578 517.251 770.879 513.712 773.989Z" fill="#A06634"/>
<path d="M508.134 781.018C509.475 780.247 516.473 778.508 518.157 778.459C507.436 803.539 508.954 809.895 537.157 815.724C537.782 809.05 544.382 780.571 552.312 781.545C553.408 782.739 553.842 782.702 553.64 783.872C552.404 791.183 543.268 810.329 547.395 816.991C556.941 823.476 591.848 819.704 603.249 817.518C606.354 816.887 609.464 816.324 612.587 815.816C615.128 816.746 616.591 817.046 618.563 818.804C619.5 820.91 619.561 821.265 618.232 823.408C615.789 823.592 599.82 827.847 593.985 828.723C568.323 832.562 539.6 829.268 515.433 819.814C508.048 816.924 503.205 812.025 500.524 804.757C500.658 794.942 503.56 789.352 508.134 781.018Z" fill="#532503"/>
<path d="M662.723 459.748C664.088 462.846 664.78 465.528 667.878 466.857C671.827 466.49 673.015 464.212 675.697 461.12C677.883 469.931 680.363 476.685 684.949 484.632C673.713 484.21 655.755 496.125 645.847 501.813C634.012 508.604 595.589 527.524 590.14 539.097C584.654 545.061 578.604 550.553 573.081 556.456C554.939 575.835 540.274 598.876 526.338 621.397C515.212 639.374 512.206 651.485 494.149 664.46C490.657 663.517 492.179 656.88 492.548 653.916C486.095 662.825 477.549 676.235 468.095 681.519C465.549 681.225 462.315 684.133 459.557 684.617C457.378 684.997 454.568 682.762 453.78 680.998C452.475 680.331 452.862 680.686 451.931 679.627C454.149 679.908 454.697 680.245 456.751 679.688L453.933 679.504C454.658 679.321 454.782 679.302 455.558 679.027C463.814 676.118 483.022 637.151 487.521 627.489C488.696 630.299 491.223 637.353 493.929 638.364C504.705 642.393 516.663 620.521 519.817 613.4C529.063 592.49 530.532 571.892 522.425 550.547C536.863 548.985 565.562 539.991 578.5 532.723C579.167 532.465 579.835 532.19 580.496 531.902C609.311 519.117 651.144 488.894 662.723 459.748Z" fill="#F4D7B7"/>
<path d="M675.697 461.12C675.385 461.953 682.206 453.968 683.608 451.849C686.419 461.114 689.633 471.082 694.458 479.477C703.496 495.207 711.988 494.564 712.748 514.5C729.856 514.611 747.943 533.066 759.546 544.81C804.955 590.794 841.913 660.192 841.454 725.966C841.338 742.786 839.268 768.766 826.496 781.349C821.622 786.156 814.954 789.156 808.488 791.146C810.367 786.841 814.458 781.661 816.895 776.524C838.993 745.615 829.453 689.203 816.846 655.808C800.075 611.361 757.287 543.891 713.25 523.508C706.551 524.022 699.797 527.328 695.909 526.936L695.242 526.104C696.283 521.395 702.339 517.562 706.257 515.217C703.024 501.434 693.981 498.091 685.047 485.251L684.949 484.632C680.363 476.685 677.883 469.931 675.697 461.12Z" fill="#532503"/>
<path d="M667.645 653.016C670.909 657.002 668.405 701.884 668.209 709.666C675.299 710.738 682.182 712.612 688.672 715.698C686.027 718.9 685.268 718.943 681.22 719.169L680.363 719.218C636.638 713.212 576.375 711.957 539.876 740.165C537.341 742.125 534.849 744.298 532.467 746.454C523.129 756.624 520.184 761.596 513.712 773.989C517.251 770.879 520.784 767.578 525.278 765.986L526.136 766.403C525.493 769.36 520.258 775.226 518.157 778.459C516.474 778.508 509.475 780.247 508.134 781.018C507.173 780.933 506.211 780.731 505.244 780.559C497.483 772.752 515.88 747.752 521.782 741.568C548.283 713.806 586.57 707.119 623.211 706.085C635.077 706.158 646.937 706.709 658.761 707.744C659.024 696.594 660.677 660.401 667.645 653.016Z" fill="#69340D"/>
<path d="M629.407 705.386C637.324 696.9 640.79 694.187 646.907 684.146C651.928 675.898 660.383 645.76 665.496 641.664L666.69 642.656C667.627 645.326 666.721 648.914 666.384 652L667.645 653.016C660.677 660.4 659.024 696.594 658.761 707.744C646.937 706.709 635.077 706.158 623.21 706.084C624.558 705.203 627.484 705.448 629.407 705.386Z" fill="#FBE7CE"/>
<path d="M612.752 811.652C613.12 812.956 612.893 812.564 613.64 813.654C635.353 813.195 657.475 813.409 679.175 813.979C681.398 814.034 693.081 816.471 695.003 817.83C692.897 818.822 686.976 817.64 684.625 816.875C678.263 814.793 646.992 813.446 642.939 815.112L643.282 815.822C646.221 817.052 650.219 817.83 653.422 817.61C657.579 817.328 659.673 820.475 663.494 820.432C666.145 820.396 668.68 818.987 671.276 818.559C674.001 818.118 677.136 820.212 679.53 819.887C683.829 819.3 681.428 818.069 687.625 818.914C702.553 820.953 787.969 803.116 800.583 794.52C801.324 794.018 801.942 793.607 802.75 793.197C803.993 792.566 805.677 791.93 806.755 791.066C810.625 787.974 811.513 779.426 816.142 776.898C816.386 776.763 816.644 776.653 816.895 776.524C814.458 781.661 810.368 786.841 808.488 791.146C790.462 805.504 726.519 816.134 702.945 819C685.61 820.99 668.215 822.422 650.783 823.298C643.331 823.69 625.323 824.921 618.232 823.408C619.561 821.265 619.5 820.91 618.563 818.804C616.592 817.046 615.128 816.746 612.587 815.816L612.752 811.652Z" fill="#F4D7B7"/>
<path d="M399.156 641.921C416.379 658.613 417.295 648.558 427.748 634.133C432.63 642.974 448.047 675.445 453.933 679.504L456.751 679.688C454.697 680.245 454.149 679.908 451.931 679.627C452.862 680.686 452.475 680.331 453.78 680.998C454.568 682.762 457.378 684.997 459.557 684.617C462.315 684.133 465.549 681.225 468.095 681.519C466.179 683.613 460.975 685.444 458.266 686.436C451.002 681.886 432.958 663.009 428.174 655.722C424.876 659.751 422.316 662.495 418.662 666.23C412.136 662.433 398.743 650.016 399.156 641.921Z" fill="#FBE7CE"/>
<path d="M590.14 539.097C595.589 527.524 634.012 508.604 645.847 501.814C655.754 496.125 673.713 484.21 684.949 484.632L685.047 485.251C675.428 484.675 658.393 496.095 649.687 500.736L649.142 501.587C652.381 501.312 662.986 494.57 666.66 494.307C662.765 498.452 649.154 501.887 643.655 505.279C632.126 512.394 620.302 519.362 608.84 526.569C602.472 530.574 596.808 535.429 590.14 539.097Z" fill="#FBE7CE"/>
<path d="M689.939 715.998C693.277 716.059 702.4 718.894 702.186 722.874C699.351 723.994 695.358 722.268 692.383 721.306C692.891 720.945 693.056 720.572 693.448 720.027C692.976 718.086 691.556 717.32 689.939 715.998Z" fill="#FBE7CE"/>
<path d="M688.672 715.698L689.939 715.998C691.556 717.32 692.977 718.086 693.448 720.027C693.056 720.572 692.891 720.945 692.383 721.306C688.421 720.559 684.349 719.904 680.363 719.219L681.22 719.169C685.268 718.943 686.027 718.9 688.672 715.698Z" fill="#C28247"/>
<path d="M300.14 711.099C304.391 709.709 305.108 712.85 308.782 715.085C305.77 715.355 304.703 714.424 301.493 714.148L300.14 711.099Z" fill="#FBE7CE"/>
<path d="M340.478 139.673C343.202 128.527 344.938 118.691 348.409 107.486C364.743 54.7564 409.553 -2.41572 469.977 0.0788137C484.258 0.668463 503.566 9.12072 512.677 20.2481C515.494 23.5705 520.178 30.192 519.376 34.6703C517.949 42.6677 506.554 38.8108 501.38 38.1972C463.188 33.6772 441.911 66.1128 433.961 99.1136C443.58 97.4977 451.719 96.5756 460.722 101.074C460.945 95.2163 461.075 82.3646 468.702 81.8423C471.481 83.2482 473.908 88.2789 477.124 91.1316C484.32 97.5142 491.651 101.628 498.463 108.475C514.9 99.2563 547.824 97.8143 556.61 118.078C560.59 108.836 565.642 101.041 570.962 92.5552C605.013 38.5138 667.529 -8.98819 734.417 13.4442C748.31 18.1045 780.738 37.787 775.589 57.9851C773.274 67.0619 750.135 56.9974 742.879 56.4984C712.233 54.3902 686.321 74.0024 669.17 97.7775C657.469 113.473 651.334 127.341 644.408 145.537C659.477 155.838 673.793 173.102 678.079 191.161C712.791 195.375 731.888 222.292 757.428 242.727C783.916 263.959 815.523 273.492 849.163 274.044C863.265 274.275 890.628 264.708 901.589 274.115C917.95 288.156 899.825 317.399 889.263 329.941C868.169 354.99 835.784 371.933 803.026 374.722C765.137 377.682 732.997 367.831 704.071 343.367C709.264 371.404 703.6 397.471 697.287 424.656C695.266 433.37 690.662 441.63 685.659 448.966C685.966 444.085 686.553 442.91 683.345 439.218C690.65 428.248 691.972 426.767 696.081 414.153C692.505 415.959 688.745 418.467 685.317 420.629C686.706 415.34 688.237 410.531 689.903 405.341C689.78 405.21 689.658 405.079 689.535 404.949C670.738 376.764 668.417 321.474 670.107 290.731C667.56 287.875 654.879 273.541 659.71 270.374C662.606 270.872 679.365 287.868 683.718 291.079C731.38 326.232 792.464 331.179 843.708 300.676C854.123 294.477 866.54 285.812 877.476 280.508C828.663 292.001 778.803 277.454 741.845 244.029C713.55 218.442 688.292 187.657 646.858 206.252L644.323 203.265C649.785 194.479 658.271 192.854 667.664 190.946C659.636 172.274 649.674 161.079 633.283 149.311C635.634 146.726 635.751 143.911 636.393 140.484C629.713 135.547 624.453 132.921 617.1 129.275C607.915 124.844 590.838 121.624 580.563 121.689C575.781 121.719 571.054 122.169 566.211 122.027L565.574 122.004C563.394 125.051 563.548 127.136 563.456 130.928C551.179 132.792 544.125 136.595 533.024 140.772C532.173 141.09 532.375 140.928 531.242 140.627C529.834 133.905 544.486 128.223 548.479 124.739C550.254 119.265 543.531 114.714 539.141 113.276C523.582 108.172 508.189 111.177 493.817 117.679C492.066 116.239 492.016 114.777 491.747 112.707C489.342 109.154 477.7 102.146 474.256 98.3488C473.038 97.0067 469.02 91.8272 467.958 91.4212C465.278 95.452 469.365 105.554 468.532 110.575C465.044 111.114 451.523 100.561 433.037 106.572C430.952 107.251 427.624 108.135 426.3 109.962C426.176 110.134 426.103 110.339 426.005 110.528C426.727 112.698 426.813 112.237 428.815 113.999C427.403 114.872 424.749 115.567 423.046 116.108L418.058 110.592L419.255 113.898C418.485 115.141 414.748 115.961 413.252 116.319C401.57 119.119 389.75 118.071 377.983 121.768C374.442 122.881 353.714 132.165 353.151 132.119L352.691 131.471C352.172 135.246 351.327 139.458 350.647 143.243C342.585 149.388 335.681 154.517 328.479 161.861C296.163 194.82 284.348 236.005 278.106 280.537C274.659 305.136 275.831 330.87 268.753 354.35C266.584 361.547 261.625 368.276 258.969 374.732C252.238 387.246 247.552 402.89 247.691 417.18C247.928 448.702 260.615 478.852 282.987 501.06C308.191 526.226 347.63 542.856 382.676 547.981C396.553 550.008 407.265 550.149 421.159 550.069L426.574 550.02L426.449 556.364C418.17 558.146 414.608 558.531 406.554 559.187C402.142 559.542 384.975 558.384 383.196 558.991C379.011 557.876 378.24 557.521 374.453 559.548C367.111 564.869 358.184 571.316 351.475 577.396C319.981 605.954 294.381 642.833 272.006 678.659C284.618 687.005 295.074 696.288 300.14 711.099L301.493 714.149C304.703 714.424 305.77 715.355 308.782 715.085C311.213 715.894 310.735 716.237 312.933 715.159C326.112 708.693 336.934 665.532 347.265 661.833C350.167 665.091 342.575 674.563 345.773 678.157C346.108 678.531 346.516 680.153 346.388 680.582C341.834 704.523 339.803 729.848 345.151 753.826C345.792 756.698 346.801 762.227 349.105 763.96C352.153 761.657 352.228 756.587 356.293 755.669C360.019 758.908 357.527 764.621 358.094 769.06C359.383 779.145 364.307 788.739 369.78 797.146C385.407 805.076 411.216 803.141 415.666 806.092C401.734 806.013 381.209 804.151 368.772 798.169C354.916 792.279 353.899 791.893 347.833 777.987C336.731 788.844 332.559 790.987 318.126 796.448L316.448 797.318C315.094 797.734 312.753 798.536 311.46 798.794C305.168 801.788 291.922 802.927 284.801 803.086C281.116 804.176 265.827 804.457 261.512 804.488C232.261 804.666 186.452 803.6 160.243 789.676C145.803 783.706 133.329 776.083 125.744 762.233C109.031 731.618 106.853 702.466 115.099 668.507C125.614 625.199 163.617 575.008 213.917 587.371C242.435 595.129 253.369 623.136 256.51 649.924C257.128 655.196 257.069 673.24 262.665 674.202C265.476 670.51 267.133 666.132 269.621 662.225C284.88 638.413 301.768 614.931 320.496 593.702C333.382 579.093 349.022 566.124 364.512 554.423C325.937 547.136 281.941 521.799 259.658 489.445C238.569 458.83 228.841 419.162 242.887 383.437C247.505 371.693 255.128 362.337 258.73 351.638C263.037 338.843 263.412 321.407 265.661 308.014C246.769 308.912 230.761 306.453 213.713 297.841C192.73 287.195 176.866 268.611 169.648 246.216C164.201 229.489 159.938 196.327 175.347 182.578C176.734 181.339 180.277 180.417 182.174 179.888C193.839 182.56 196.994 188.643 206.405 195.604C212.451 200.047 219.152 203.516 226.269 205.89C248.087 213.058 270.745 207.557 290.684 197.542C304.315 172.22 316.349 156.316 340.478 139.673Z" fill="#532503"/>
<path d="M205.518 596.537C209.007 596.837 211.462 597.584 214.647 599.133C222.812 603.34 227.517 606.175 232.777 613.951C233.665 616.682 235.309 617.27 236.456 619.646C249.957 647.089 251.245 702.154 252.153 733.387C256.818 740.037 246.557 753.691 257.698 756.661C261.242 738.494 261.166 703.023 259.136 684.054C275.38 691.487 286.178 700.353 297.633 713.714C298.685 714.945 299.165 714.914 300.553 715.043L301.493 714.149C304.703 714.424 305.77 715.355 308.782 715.086C311.213 715.894 310.735 716.237 312.933 715.159C326.112 708.693 336.934 665.532 347.265 661.833C350.167 665.091 342.575 674.563 345.773 678.157C346.108 678.531 346.516 680.153 346.388 680.582C341.834 704.523 339.803 729.848 345.151 753.826C345.792 756.698 346.801 762.227 349.105 763.96C352.153 761.657 352.228 756.587 356.293 755.669C360.019 758.908 357.527 764.621 358.094 769.06C359.383 779.145 364.307 788.74 369.78 797.147C385.407 805.076 411.216 803.141 415.666 806.092C401.734 806.013 381.209 804.151 368.772 798.169C354.916 792.279 353.899 791.893 347.833 777.988C336.731 788.844 332.559 790.987 318.126 796.449L316.448 797.318C315.095 797.734 312.753 798.537 311.46 798.794C305.168 801.788 291.922 802.927 284.801 803.086C281.116 804.176 265.827 804.458 261.512 804.488C232.261 804.666 186.452 803.6 160.243 789.676C158.489 787.074 150.787 779.855 148.04 776.463C134.115 759.288 129.028 745.921 123.751 725.189L122.784 726.572L122.132 726.26C121.044 722.06 121.061 718.104 120.959 713.818C119.959 671.593 137.115 619.633 178.293 601.032C187.74 596.764 195.415 596.617 205.518 596.537Z" fill="#FDF3E5"/>
<path d="M333.601 700.543C335.648 694.151 338.559 683.925 343.444 679.168L344.323 679.357C345.263 683.288 343.154 691.512 342.633 695.877C340.001 717.951 338.606 748.04 349.176 768.025C350.541 765.343 353.532 758.363 355.997 757.408C357.419 760.543 356.404 765.974 356.899 769.146C358.582 779.922 363.071 789.18 368.772 798.169C354.916 792.279 353.899 791.893 347.833 777.987C336.731 788.844 332.559 790.987 318.126 796.448C319.975 793.46 337.24 774.675 341.235 770.009C328.288 748.946 330.052 724.019 333.601 700.543Z" fill="#69340D"/>
<path d="M201.21 636.435C204.501 628.212 208.672 619.982 211.667 611.545C213.035 607.693 213.279 603.505 214.395 599.917L214.646 599.133C222.812 603.34 227.517 606.175 232.777 613.951C233.665 616.682 235.309 617.27 236.456 619.646C233.44 628.163 231.974 633.073 225.701 639.594C224.161 640.084 224.593 639.986 223.006 640.109L222.072 638.982C221.502 640.727 221.657 640.795 220.647 642.221L219.896 641.958C213.509 636.692 207.99 638.97 201.21 636.435Z" fill="#FEFBF4"/>
<path d="M232.777 613.951C233.665 616.682 235.309 617.27 236.456 619.646C233.44 628.163 231.974 633.073 225.701 639.594C224.161 640.084 224.593 639.986 223.006 640.109L222.072 638.982C224.282 631.114 228.793 621.06 232.777 613.951Z" fill="#69340D"/>
<path d="M316.448 797.318C317.048 795.512 317.906 794.385 318.812 792.732C318.474 790.607 317.992 789.064 318.643 787.05C323.839 781.208 328.194 784.784 330.264 780.4C329.832 779.42 329.553 778.618 328.694 778.036C321.772 773.371 323.723 755.651 322.61 745.241L321.453 754.42L320.965 754.579C320.932 747.678 322.249 732.567 324.041 725.856C324.582 730.032 322.319 733.669 323.216 736.706C325.218 735.977 328.456 730.185 329.394 728.091C331.961 722.341 328.901 704.854 333.601 700.543C330.052 724.019 328.288 748.946 341.235 770.009C337.24 774.675 319.975 793.46 318.126 796.448L316.448 797.318Z" fill="#F4D7B7"/>
<path d="M205.518 596.537C209.007 596.837 211.462 597.584 214.646 599.133L214.395 599.917C213.279 603.505 213.035 607.693 211.667 611.545C208.672 619.982 204.501 628.212 201.21 636.435C200.597 637.709 200.259 638.694 199.36 639.748C195.821 640.556 194.283 641.389 191.278 639.827C188.37 633.361 210.11 602.93 205.518 596.537Z" fill="#69340D"/>
<path d="M252.153 733.387C256.818 740.037 246.557 753.691 257.698 756.661C256.345 762.698 255.07 765.252 252.189 770.597C251.51 759.808 252.066 744.556 252.153 733.387Z" fill="#69340D"/>
<path d="M284.801 803.086C290.498 798.787 290.288 802.749 295.665 800.882C296.308 799.498 296.368 799.339 297.276 798.126C301.327 796.644 307.414 797.495 311.46 798.794C305.168 801.788 291.922 802.927 284.801 803.086Z" fill="#F4D7B7"/>
<path d="M199.36 639.748C200.259 638.694 200.597 637.709 201.21 636.435C207.99 638.97 213.509 636.692 219.896 641.958C218.661 642.54 202.54 639.986 199.36 639.748Z" fill="#FBE7CE"/>
<path d="M220.647 642.221C221.657 640.795 221.502 640.727 222.072 638.982L223.006 640.109C224.593 639.986 224.161 640.084 225.701 639.594C225.709 642.215 225.92 642.742 224.541 644.799L223.431 645.326C221.978 644.572 221.393 643.917 220.647 642.221Z" fill="#F4D7B7"/>
<path d="M172.464 632.614C173.919 633.269 173.916 633.447 175.047 634.623C177.99 643.029 168.691 648.981 162.533 652.379L162.069 652.692L161.132 652.453C160.415 645.754 166.941 636.141 172.464 632.614Z" fill="#69340D"/>
<path d="M594.101 77.5868C612.93 74.633 625.941 79.3778 640.098 91.8755C645.051 96.6833 647.899 101.155 651.805 106.887C647.084 114.76 638.494 131.945 636.393 140.484C629.713 135.547 624.453 132.921 617.1 129.275C607.915 124.844 590.838 121.624 580.563 121.689C575.781 121.719 571.054 122.169 566.211 122.027L565.574 122.004C574.961 104.007 581.323 93.5183 594.101 77.5868Z" fill="#AD703B"/>
<path d="M640.098 91.8756C645.051 96.6834 647.899 101.155 651.805 106.887C647.084 114.761 638.494 131.945 636.393 140.484C629.713 135.547 624.454 132.921 617.1 129.275C618.49 127.749 622.819 123.466 623.59 121.995C628.966 111.704 634.085 101.83 640.098 91.8756Z" fill="#A06634"/>
<path d="M639.975 36.3457C646.019 37.1337 649.68 36.89 655.559 38.7129C670.376 45.0955 678.428 52.1413 683.865 67.7814C671.711 79.5334 664.737 86.7935 655.05 101.339C654.34 102.538 652.295 105.796 651.805 106.887C647.899 101.155 645.051 96.6834 640.098 91.8756C625.941 79.3778 612.93 74.6331 594.102 77.5869C596.373 74.8345 598.694 71.92 601.1 69.2999C612.122 56.9883 625.843 44.8525 639.975 36.3457Z" fill="#AB6E39"/>
<path d="M594.102 77.5869C596.373 74.8345 598.694 71.92 601.1 69.2999C605.031 70.4713 610.468 69.3103 614.626 70.2C632.609 74.0514 646.968 84.7808 655.05 101.339C654.34 102.538 652.295 105.796 651.805 106.887C647.899 101.155 645.051 96.6834 640.098 91.8756C625.941 79.3778 612.93 74.6331 594.102 77.5869Z" fill="#69340D"/>
<path d="M367.996 85.8419C371.849 85.1151 375.234 82.5888 379.051 81.5197C394.691 77.1405 414.554 77.6597 427.127 89.1655C426.914 90.1207 425.887 95.0253 425.635 95.6259C424.845 98.5626 424.595 99.3065 424.428 102.286C421.876 104.136 419.607 105.425 417.989 108.076C417.888 109.448 417.76 109.315 418.058 110.593L419.255 113.898C418.485 115.141 414.748 115.961 413.252 116.319C401.57 119.119 389.75 118.071 377.983 121.768C374.442 122.881 353.714 132.165 353.151 132.119L352.691 131.472C355.668 117.127 358.834 108.435 363.937 94.9212C365.137 91.7978 366.16 88.6059 367.996 85.8419Z" fill="#AD703B"/>
<path d="M367.996 85.8419C371.849 85.1151 375.234 82.5888 379.051 81.5197C394.691 77.1405 414.554 77.6597 427.127 89.1655C426.914 90.1207 425.887 95.0253 425.635 95.6259C424.524 92.7842 420.293 90.951 417.599 89.7589C397.929 81.0543 382.125 87.4823 363.937 94.9212C365.137 91.7978 366.16 88.6059 367.996 85.8419Z" fill="#69340D"/>
<path d="M649.913 30.4552C667.792 21.4648 686.859 16.4898 706.912 17.9312C710.384 18.083 713.801 18.0928 717.169 18.9476L716.893 20.0669C718.901 22.4837 722.049 25.7044 723.5 28.1695C725.582 32.6222 726.972 36.004 727.847 40.9324C727.541 43.4453 727.321 45.7065 726.776 48.1876L719.997 49.305C708.333 52.1174 699.7 56.2731 689.743 63.1566L683.865 67.7813C678.428 52.1412 670.376 45.0955 655.558 38.7128C649.68 36.89 646.019 37.1337 639.975 36.3456C643.698 33.8805 645.927 32.3987 649.913 30.4552Z" fill="#A96D39"/>
<path d="M655.559 38.7128C655.993 37.4735 658.645 35.5876 659.784 35.0769C662.778 33.7329 665.104 35.1535 667.866 36.5275C678.41 43.3878 683.302 48.3492 688.458 60.4906C688.99 61.7379 689.076 61.9675 689.744 63.1566L683.865 67.7814C678.428 52.1413 670.376 45.0955 655.559 38.7128Z" fill="#69340D"/>
<path d="M723.5 28.1696C725.582 32.6222 726.972 36.004 727.847 40.9324C727.541 43.4453 727.321 45.7066 726.776 48.1876L719.997 49.3051C721.51 40.8669 721.198 38.6945 718.124 30.7302C719.459 29.1486 721.277 28.9411 723.5 28.1696Z" fill="#834B20"/>
<path d="M639.975 36.3457C643.698 33.8806 645.927 32.3988 649.913 30.4553C654.616 31.5697 665.496 32.6719 667.866 36.5276C665.104 35.1536 662.778 33.733 659.783 35.077C658.644 35.5877 655.993 37.4736 655.558 38.7129C649.68 36.89 646.019 37.1337 639.975 36.3457Z" fill="#A06634"/>
<path d="M706.913 17.9313C710.384 18.0831 713.801 18.0929 717.169 18.9477L716.893 20.067C718.902 22.4838 722.049 25.7045 723.5 28.1696C721.277 28.9411 719.459 29.1487 718.124 30.7303C714.769 25.0811 711.658 22.4078 706.913 17.9313Z" fill="#A06634"/>
<path d="M407.454 39.0668C417.559 38.1422 426.815 39.7654 435.488 45.3067C439.451 48.1625 442.056 50.455 445.215 54.2917L441.774 59.353C435.001 69.5969 431.282 77.8483 427.127 89.1655C414.554 77.6597 394.691 77.1405 379.051 81.5197C375.234 82.5887 371.849 85.1151 367.996 85.8419C372.452 76.2239 383.902 56.0172 391.535 49.7056C393.935 45.9515 396.07 43.8807 399.14 40.6936C402.266 40.2081 404.355 39.8542 407.454 39.0668Z" fill="#AC703B"/>
<path d="M407.454 39.0668C417.559 38.1422 426.815 39.7654 435.488 45.3067C439.451 48.1625 442.056 50.455 445.215 54.2917L441.774 59.353C423.735 41.2404 413.325 43.9138 391.535 49.7056C393.935 45.9515 396.07 43.8807 399.14 40.6936C402.266 40.2081 404.355 39.8542 407.454 39.0668Z" fill="#69340D"/>
<path d="M670.107 290.731C673.817 294.463 674.607 297.897 676.218 302.767C679.738 313.38 684.606 322.299 691.599 331.015C695.034 360.387 697.054 375.463 689.903 405.341C689.78 405.21 689.658 405.079 689.535 404.949C670.738 376.764 668.417 321.475 670.107 290.731Z" fill="#F4D7B7"/>
<path d="M441.377 13.8404L443.923 13.2611C447.481 17.2742 453.535 15.4997 459.946 25.5164C462.311 29.6966 463.021 32.6957 463.388 37.4649C456.442 42.0302 450.301 47.7167 445.215 54.2917C442.056 50.455 439.451 48.1625 435.488 45.3067C426.815 39.7653 417.559 38.1421 407.454 39.0667C414.945 32.2383 424.503 26.6204 433.531 21.8891C436.879 20.1342 441.565 19.2684 444.695 17.0745C443.952 15.1733 443.361 15.2744 441.377 13.8404Z" fill="#AD703B"/>
<path d="M459.946 25.5165C462.311 29.6967 463.021 32.6957 463.388 37.465C456.442 42.0303 450.301 47.7168 445.215 54.2917C442.056 50.455 439.451 48.1626 435.488 45.3068C441.316 38.9884 449.387 29.7585 457.397 27.1721C458.633 26.7729 459.028 26.4931 459.946 25.5165Z" fill="#A06634"/>
<path d="M443.923 13.2612C466.424 6.55645 493.395 9.52919 507.975 29.873C492.623 28.6423 484.003 27.9938 469.315 34.4255L464.461 36.7388L463.388 37.465C463.021 32.6957 462.311 29.6967 459.946 25.5165C453.535 15.4998 447.481 17.2742 443.923 13.2612Z" fill="#9D6130"/>
<path d="M464.461 36.7388C468.618 32.3547 465.93 27.0521 464.236 22.2235C464.14 21.9486 461.223 20.1545 460.371 18.1927C465.521 18.0078 468.814 30.6047 469.314 34.4255L464.461 36.7388Z" fill="#69340D"/>
<path d="M717.169 18.9476C732.078 21.5928 743.694 26.5335 755.168 36.4785C753.882 38.2811 753.478 39.6337 751.513 39.8872C746.045 40.5926 732.795 36.9977 728.288 39.9515L727.847 40.9324C726.972 36.004 725.582 32.6222 723.5 28.1695C722.049 25.7044 718.901 22.4837 716.893 20.0669L717.169 18.9476Z" fill="#AD703B"/>
<path d="M755.168 36.4785C760.379 41.7725 763.575 44.9185 765.724 52.2974C752.174 48.6364 741.055 45.9245 726.776 48.1876C727.321 45.7066 727.541 43.4453 727.847 40.9324L728.288 39.9515C732.795 36.9977 746.045 40.5926 751.513 39.8872C753.478 39.6337 753.882 38.2811 755.168 36.4785Z" fill="#A06634"/>
<path d="M399.14 40.6937C410.613 28.3092 425.653 19.5851 441.377 13.8405C443.361 15.2745 443.952 15.1734 444.695 17.0746C441.565 19.2685 436.879 20.1343 433.531 21.8892C424.504 26.6205 414.945 32.2384 407.454 39.0668C404.355 39.8542 402.266 40.2081 399.14 40.6937Z" fill="#C28247"/>
<path d="M890.035 281.248C894.382 281.822 896.304 284.835 896.2 289.042C895.821 303.992 883.838 320.333 873.668 330.254C850.571 352.715 819.564 365.192 787.351 364.99C752.713 364.516 724.333 351.537 700.355 326.949C692.548 318.3 687.368 310.812 681.979 300.433C733.229 337.181 799.867 338.663 852.506 305.215C863.981 297.924 877.433 287.575 889.153 281.685L890.035 281.248Z" fill="#FAB491"/>
<path d="M176.462 209.199C176.788 203.85 177.562 195.629 180.983 191.366C185.492 189.534 195.977 201.008 200.349 204.175C227.771 224.039 255.288 223.259 285.433 210.838C278.924 227.526 275.353 238.693 271.964 256.46C249.288 259.82 238.316 260.316 216.439 252.179C213.401 252.171 211.723 251.564 209.754 254.152L209.962 253.373L209.545 254.766C210.327 255.851 210.128 255.632 211.139 256.584L210.96 257.486C229.447 268.288 250.18 269.596 270.696 264.765C268.475 275.783 267.054 289.238 265.906 300.488C262.699 300.373 257.974 300.379 254.95 299.758C243.996 299.377 223.265 293.661 214.488 286.776C190.244 273.859 176.251 243.648 175.965 217.274C175.934 214.473 175.882 211.952 176.462 209.199Z" fill="#FEFBF4"/>
<path d="M200.906 250.455L207.087 255.059C207.814 255.524 210.332 257.212 210.96 257.486C229.446 268.288 250.18 269.596 270.696 264.765C268.475 275.783 267.054 289.239 265.906 300.488C262.699 300.373 257.974 300.379 254.95 299.759C243.996 299.377 223.265 293.661 214.488 286.776C218.481 279.909 198.553 260.43 199.39 253.053C199.57 251.462 199.711 251.375 200.906 250.455Z" fill="#FAB491"/>
<path d="M200.906 250.455L207.087 255.059C206.743 267.105 226.739 275.56 236.494 278.758C240.262 279.993 244.452 280.546 248.231 281.831C251.598 285.247 256.396 294.352 259.822 299.298L254.95 299.759C243.996 299.377 223.265 293.661 214.488 286.776C218.481 279.909 198.553 260.43 199.39 253.053C199.57 251.462 199.711 251.375 200.906 250.455Z" fill="#FCB895"/>
<path d="M214.488 286.776C190.244 273.859 176.251 243.648 175.965 217.274C175.934 214.473 175.882 211.952 176.462 209.199L177.386 210.019L178.69 208.997C179.899 210.187 187.359 228.469 190.307 233.067C189.491 234.364 188.835 234.789 189.574 236.547C191.425 240.943 197.429 247.286 200.906 250.455C199.711 251.375 199.57 251.462 199.39 253.053C198.553 260.43 218.481 279.909 214.488 286.776Z" fill="#FAB491"/>
<path d="M190.307 233.067C199.562 242.713 204.435 246.28 216.439 252.179C213.401 252.171 211.723 251.564 209.754 254.152L209.962 253.373L209.545 254.766C210.327 255.851 210.128 255.632 211.139 256.584L210.96 257.486C210.332 257.212 207.814 255.524 207.087 255.058L200.906 250.455C197.429 247.286 191.425 240.943 189.574 236.547C188.835 234.789 189.491 234.364 190.307 233.067Z" fill="#69340D"/>
<path d="M258.969 374.732C267.913 372.7 273.032 371.839 281.98 377.339C288.028 381.03 292.313 387.022 293.849 393.938C295.41 400.826 293.908 407.728 289.917 413.52C285.582 419.781 278.871 423.992 271.348 425.173C261.288 426.67 255.059 423.255 247.691 417.18C247.552 402.89 252.238 387.246 258.969 374.732Z" fill="#FCB895"/>
<path d="M666.843 425.521C672.091 431.509 674.993 438.765 682.439 439.995L683.345 439.218C686.553 442.91 685.966 444.086 685.659 448.966C685.145 449.7 684.141 451.237 683.608 451.849C682.206 453.968 675.385 461.953 675.697 461.12C673.015 464.212 671.827 466.49 667.878 466.857C664.78 465.528 664.088 462.847 662.723 459.748C651.144 488.894 609.311 519.117 580.496 531.902C579.835 532.19 579.167 532.466 578.5 532.723C577.667 529.379 575.751 529.459 573.908 526.159L575.879 524.977L575.738 524.138C577.184 522.981 586.044 518.75 587.936 517.929C592.093 515.376 595.387 513.472 599.71 511.237C629.444 490.406 652.16 474.211 662.961 437.962C662.6 433.603 664.97 429.429 666.843 425.521Z" fill="#905727"/>
<path d="M666.843 425.521C672.091 431.509 674.993 438.765 682.439 439.995C677.516 448.133 675.465 451.28 669.029 458.181C668.692 453.227 668.466 444.239 666.433 439.634C665.778 438.152 664.363 438.207 662.961 437.962C662.6 433.603 664.97 429.429 666.843 425.521Z" fill="#FBE7CE"/>
<path d="M587.936 517.929C592.093 515.376 595.387 513.472 599.71 511.237L599.943 512.26L598.369 513.453C598.841 515.119 599.233 515.713 598.571 517.403C596.079 519.558 591.628 517.611 587.936 517.929Z" fill="#834B20"/>
<path d="M418.058 110.593L423.046 116.108C424.749 115.568 427.403 114.872 428.815 113.999C431.081 115.108 434.51 116.423 435.398 118.811C434.155 122.24 427.057 120.516 423.174 121.204C402.264 124.915 390.077 143.101 389.046 163.418C395.388 158.361 410.152 148.617 418.649 149.732L419.09 150.525C416.452 154.153 407.188 158.054 402.584 161.445C399.293 163.87 389.532 172.281 386.776 173.683C383.162 172.89 383.133 167.656 382.87 164.475C381.475 147.537 388.916 134.383 401.542 123.908C377.959 129.093 371.848 131.088 350.647 143.243C351.327 139.458 352.172 135.246 352.691 131.472L353.151 132.119C353.714 132.165 374.442 122.881 377.983 121.768C389.75 118.071 401.57 119.119 413.252 116.319C414.748 115.961 418.485 115.141 419.255 113.898L418.058 110.593Z" fill="#895021"/>
<path d="M563.456 130.928C563.548 127.136 563.394 125.052 565.574 122.004L566.211 122.027C571.054 122.169 575.781 121.719 580.563 121.689C590.838 121.624 607.915 124.845 617.1 129.275C624.453 132.921 629.713 135.547 636.393 140.484C635.75 143.911 635.634 146.726 633.283 149.311C611.417 134.008 589.675 128.563 563.456 130.928Z" fill="#69340D"/>
<path d="M504.772 545.948C535.406 539.391 547.45 535.729 575.739 524.138L575.879 524.977L573.908 526.159C575.751 529.459 577.667 529.38 578.5 532.723C565.562 539.991 536.863 548.986 522.425 550.547C519.878 550.363 518.966 550.449 516.394 550.688C511.214 550.688 507.571 550.608 504.772 545.948Z" fill="#834B20"/>
<path d="M493.817 117.679C491.281 119.251 486.443 122.681 483.665 122.493C483.829 119.573 489.489 114.776 491.747 112.707C492.016 114.777 492.066 116.239 493.817 117.679Z" fill="#834B20"/>
<path d="M637.802 211.491C639.841 208.153 641.261 205.697 644.323 203.266L646.858 206.252C645.278 207.4 639.755 210.38 637.802 211.491Z" fill="#F4D7B7"/>
<path d="M310.745 406.938C320.805 406.394 326.582 408.468 335.775 412.756C346.936 410.829 368.503 406.658 378.848 413.78C388.976 420.753 377.838 429.018 371.307 433.34C365.815 437.148 361.916 439.377 356.204 442.708C350.853 445.622 345.425 448.39 339.926 451.011C339.312 463.177 340.214 474.284 349.94 482.973C372.07 502.738 411.511 491.882 426.974 468.743C429.361 465.173 429.938 459.473 432.738 456.791C438.471 451.305 442.728 458.187 441.535 463.783C440.044 473.488 433.057 480.854 426.028 486.861C406.564 503.479 376.197 510.3 352.875 497.962C345.962 494.307 341.438 489.586 336.53 483.628C317.036 513.821 289.728 482.961 296.656 471.529C300.552 471.009 315.523 505.542 330.613 473.403C329.361 465.749 329.029 457.979 329.623 450.251C319.673 443.406 288.184 417.205 310.745 406.938Z" fill="#532503"/>
<path d="M310.745 406.938C320.805 406.394 326.582 408.468 335.775 412.756C346.936 410.829 368.503 406.658 378.848 413.78C388.976 420.753 377.838 429.018 371.307 433.34C365.815 437.148 361.916 439.377 356.204 442.708C351.769 437.368 350.128 443.516 346.181 437.283C330.69 451.654 328.425 436.475 318.136 426.911C315.357 424.073 312.59 421.458 310.356 418.175C309.108 413.498 310.401 412.251 310.71 407.52L310.745 406.938Z" fill="#69340D"/>
<path d="M346.181 437.283C350.101 433.07 362.885 423.356 369.435 427.764C370.777 428.668 371.051 431.692 371.307 433.34C365.815 437.148 361.916 439.377 356.204 442.708C351.768 437.368 350.128 443.516 346.181 437.283Z" fill="#2F1401"/>
<path d="M353.177 416.245C357.368 415.337 370.321 415.18 373.802 417.846L373.952 419.075C371.069 422.535 362.397 422.799 358.034 423.184C352.31 423.327 340.844 426.44 336.902 423.653C336.15 421.657 336.144 422.62 336.845 420.669C340.313 417.657 348.321 417.03 353.177 416.245Z" fill="#834B20"/>
<path d="M316.116 412.452C320.351 413.196 331.174 415.966 331.756 420.74C330.191 422.608 330.149 422.104 327.265 422.908C323.54 421.165 314.291 416.463 311.26 413.98C312.514 412.881 314.385 412.78 316.116 412.452Z" fill="#834B20"/>
<path d="M318.136 426.911C311.612 429.463 307.641 424.56 310.356 418.175C312.589 421.458 315.357 424.073 318.136 426.911Z" fill="#2F1401"/>
<path d="M566.26 388.091C616.99 381.528 623.945 437.626 569.162 447.57C558.104 448.359 547.713 447.472 538.4 440.669C526.215 431.766 523.956 415.326 533.722 403.648C542.062 393.673 553.647 389.597 566.26 388.091Z" fill="#FAB491"/>
<path d="M585.743 406.244L586.454 407.065C585.67 409.903 574.502 419.588 571.256 421.516L570.375 420.901C568.923 415.572 581.623 407.892 585.743 406.244Z" fill="#FCB895"/>
<path d="M523.264 317.535C555.557 315.763 560.327 380.533 524.587 391.503C490.244 394.57 488.422 324.861 523.264 317.535Z" fill="#2F1401"/>
<path d="M523.797 331.293C531.218 333.912 530.354 339.099 525.144 343.489C517.288 341.568 518.733 335.534 523.797 331.293Z" fill="#FEFBF4"/>
<path d="M303.583 308.902C329.56 308.026 327.612 370.032 302.723 380.057C277.588 380.361 278.683 319.691 303.583 308.902Z" fill="#2F1401"/>
<path d="M304.806 323.204C311.778 324.219 309.636 330.224 306.941 334.208C299.803 333.303 301.454 327.232 304.806 323.204Z" fill="#FEFBF4"/>
<path d="M525.003 236.74C539.202 235.416 552.655 240.154 560.333 253.102C562.109 256.097 562.745 258.872 561.778 262.23C557.204 267.107 551.865 260.035 548.852 256.736C539.337 248.656 529.522 246.862 518.072 251.02C515.671 251.893 511.587 252.746 509.034 252.403C506.566 250.537 507.16 248.174 508.697 245.755C512.157 240.312 518.996 238.069 525.003 236.74Z" fill="#532503"/>
<path d="M483.091 134.166C483.312 134.819 483.232 134.368 482.795 135.506C475.726 141.012 471.246 145.453 465.755 152.515C463.319 155.647 455.811 165.603 452.38 166.443C446.058 155.951 463.185 138.654 473.076 136.11C477.376 135.003 478.702 134.457 483.091 134.166Z" fill="#F4D7B7"/>
<path d="M308.516 233.079C315.86 232.444 326.289 238.843 323.288 245.753C319.028 248.61 315.262 243.786 308.739 243.955C303.69 245.308 302.095 247.564 297.242 249.514C295.29 249.155 296.098 249.629 294.857 247.853C294.33 240.2 302.344 235.418 308.516 233.079Z" fill="#532503"/>
<path d="M1004.47 379.53C1006.28 380.012 1007.48 380.273 1008.73 381.793C1011.63 385.325 1012.72 393.665 1014.42 398.134C1016.21 402.808 1018.82 407.279 1021.77 411.319C1027.74 419.536 1036.87 421.137 1044.95 426.117C1046.68 427.184 1048.52 428.662 1048.93 430.756C1049.48 433.627 1029.76 441.802 1026.25 444.992C1011.59 458.377 1015.22 472.772 1007.28 482.918C1005.58 482.838 1003.94 482.612 1003.11 481.044C1000.54 475.87 999.429 469.343 997.592 463.851C993.048 450.264 985.395 442.31 972.065 437.099C968.997 435.899 963.18 433.462 962.776 429.752C966.848 423.552 980.38 422.485 988.891 412.373C992.118 408.568 994.72 404.271 996.588 399.646C999.037 393.496 1000.22 383.592 1004.47 379.53Z" fill="#FEC14C"/>
<path d="M42.4829 310.958C47.5491 312.554 48.0525 316.917 49.3928 321.608C53.4028 335.64 58.7849 346.798 72.8845 352.743C76.3826 354.218 86.5603 358.118 86.7917 361.972C82.7664 367.727 67.6646 370.248 60.7272 378.863C57.1299 383.334 54.2906 388.365 52.3233 393.755C49.484 401.497 49.454 410.039 43.8637 414.806C38.0315 411.237 37.9776 401.843 35.4451 395.027C29.0306 377.761 22.5536 373.245 5.9418 366.239C3.95059 365.399 0.758645 363.509 0 361.2C3.04315 356.259 19.794 351.737 26.3058 344.275C29.8137 340.209 32.6089 335.579 34.575 330.581C37.0763 324.087 37.9819 315.531 42.4829 310.958Z" fill="#FEC14C"/>
<path d="M915.886 566.877C916.455 567.006 918.494 567.563 918.715 567.967C922.86 575.48 922.97 582.583 927.906 590.426C933.435 599.225 945.338 599.85 949.312 605.599C948.13 609.334 936.919 612.09 932.253 616.106C922.591 624.428 923.442 637.121 918.886 644.138C914.325 643.801 914.11 639.57 912.88 635.59C911.11 629.865 909.457 625.487 906.573 620.252C902.593 613.02 889.11 610.932 884.983 605.673C886.306 601.136 895.466 600.468 899.635 596.935C907.773 590.047 910.485 585.044 912.953 574.715C913.633 571.892 914.27 569.394 915.886 566.877Z" fill="#FEC14C"/>
<path d="M111.091 504.985C116.983 507.863 115.738 518.156 120.727 524.059C124.684 528.743 131.583 529.478 135.524 533.494C135.517 536.984 125.722 539.078 121.873 543.065C116.221 548.918 116.929 557.797 112.886 562.566C107.243 559.26 108.15 547.749 103.056 542.905C99.5051 539.538 93.3539 538.129 89.0316 534.517C88.9037 534.131 88.7763 533.751 88.6483 533.366C90.9475 531.027 99.7188 527.279 101.846 525.161C107.588 519.43 108.233 511.88 111.091 504.985Z" fill="#FEC14C"/>
</svg>
