<svg width="616" height="940" viewBox="0 0 616 940" fill="none" xmlns="http://www.w3.org/2000/svg">
<path d="M184.154 145.326C177.171 81.7917 222.502 21.138 286.655 13.8749C302.631 12.0667 328.14 15.2397 339.975 26.2416C362.012 46.7134 325.452 46.0968 316.904 48.1695C288 55.1791 268.69 86.4771 267.807 114.863C267.732 118.011 267.77 121.16 267.92 124.306C296.014 103.153 336.13 111.684 340.282 149.959C363.004 137.025 369.042 151.484 369.011 172.676C390.013 156.959 406.031 145.421 432.342 139.642C490.051 126.965 536.035 176.855 548.594 228.732C552.819 246.378 540.689 251.834 529.3 238.425C511.415 218.124 482.208 196.754 454.972 213.325C443.963 219.948 433.419 232.88 427.308 244.475C431.429 256.087 433.162 263.196 434.013 275.511C453.717 287.782 463.943 304.158 478.307 321.768C489.464 335.447 502.536 348.362 517.409 357.843C530.01 365.878 541.895 370.953 556.584 373.792C567.012 376.154 582.681 377.381 585.565 390.01C587.726 399.487 584.261 410.74 578.891 418.463C550.474 459.314 486.169 465.601 446.265 438.637C428.943 426.931 421.553 416.337 411.505 398.823C408.866 412.584 396.932 470.487 387.754 476.09C386.688 476.739 385.99 476.886 384.778 476.996C381.563 475.82 380.002 473.389 377.724 470.695C375.465 479.041 367.59 498.733 356.771 497.006C355.81 495.983 354.836 494.979 353.844 493.987C350.562 495.316 350.672 503.068 350.501 506.203C349.448 523.298 351.493 540.449 356.538 556.816C380.884 564.353 394.073 559.553 418.381 557.012C452.125 553.491 476.128 559.865 501.501 581.969C514.782 570.979 521.91 557.698 523.6 540.553C524.267 533.769 521.144 518.29 532.582 521.651C552.782 527.591 562.53 546.296 567.851 564.641C568.99 560.018 569.516 554.624 573.117 551.875C574.641 551.458 576.331 551.342 577.666 552.45C592.441 564.727 592.472 589.568 589.618 606.86C589.006 610.601 586.055 615.395 585.963 619.063C588.59 619.791 591.976 618.763 592.863 621.426C599.942 642.661 581.401 660.95 567.092 669.455C577.513 674.219 574.255 678.879 565.995 683.434C557.129 688.321 548.19 689.998 538.16 689.245C537.744 715.862 529.374 741.854 545.306 764.987C551.276 773.657 552.415 785.946 552.733 796.08C552.696 829.879 551.968 865.246 543.469 898.115C537.891 919.833 517.109 924.511 497.356 924.407C471.101 923.421 463.912 915.51 468.406 889.554C472.766 864.37 472.986 831.943 464.524 807.585C460.006 804.995 454.25 801.909 450.025 799.031C447.117 819.997 441.189 840.968 434.693 861.327C431.417 871.583 425.368 888.924 416.263 896.363C404.206 906.209 369.77 908.64 358.767 895.806C352.95 889.016 361.737 869.103 363.874 861.658C369.409 843.668 374.326 826.028 372.483 807.095C367.174 800.323 362.074 794.157 357.934 786.565C351.732 820.156 335.163 899.388 316.457 924.499C314.693 926.868 312.403 928.785 309.985 930.444C295.308 940.511 272.731 941.655 255.789 938.294C249.566 937.057 242.469 934.877 238.939 929.171C235.126 923.011 236.631 914.322 238.422 907.691C240.145 901.525 241.908 895.365 243.708 889.218C244.212 886.977 244.581 884.791 244.977 882.525C242.503 882.501 242.339 882.299 240.066 881.123C238.601 883.346 237.895 885.948 237.017 888.495C231.547 900.95 228.039 910.899 213.928 915.877C198.248 921.517 178.801 922.282 163.123 916.496C149.538 911.487 150.883 896.749 154.435 885.477C161.168 864.119 164.479 842.511 163.643 819.972C162.746 797.758 159.484 775.703 153.911 754.174C150.68 741.205 150.107 736.668 142.246 725.769C137.32 718.942 134.888 706.022 133.313 697.854C132.028 700.689 130.902 703.873 128.774 706.028C119.178 708.545 110.957 685.663 109.653 678.389C107.965 668.874 108.486 659.095 111.176 649.813C103.635 650.566 97.7771 650.897 90.2029 649.69C83.3353 648.588 69.1929 644.859 79.1925 635.76C91.3816 624.671 98.4911 609.78 104.241 594.473C98.5841 581.284 99.0115 574.628 103.721 561.206C89.7161 561.592 76.8981 559.118 65.5344 550.197C62.5341 547.84 62.9958 542.966 66.4118 541.233C83.8821 532.14 96.776 514.867 103.207 496.559C75.976 476.469 57.8047 446.414 52.6625 412.965C49.4198 391.273 52.0374 369.107 60.2447 348.766C62.2739 343.692 67.9769 333.093 69.098 328.753C71.1811 320.691 71.5821 307.611 72.6916 298.78C28.2395 295.708 -2.9911 248.911 0.227787 206.702C2.73701 179.496 17.3209 175.568 36.9887 193.285C52.6882 207.427 75.439 208.66 94.7388 203.248C116.721 197.085 115.821 196.707 130.913 180.586C144.306 166.281 166.161 152.84 184.154 145.326Z" fill="#552E08"/>
<path d="M250.454 837.509C250.28 849.687 248.238 870.879 244.977 882.525C242.503 882.501 242.339 882.299 240.066 881.123C244.132 865.681 246.898 852.957 250.454 837.509Z" fill="#FEFBF2"/>
<path d="M203.601 147.993C203.039 147.081 202.511 146.149 202.018 145.197C188.736 120.009 214.597 92.3062 239.355 90.8556C246.506 90.4368 249.612 91.043 256.352 93.1983C255.149 113.091 254.783 119.535 263.398 138.171C281.56 120.642 312.838 111.143 329.462 138.58C335.224 148.099 333.124 159.181 329.719 169.321C336.087 162.759 345.774 152.567 355.626 152.86C358.118 154.121 357.432 153.978 359.079 156.921C362.398 163.345 362.698 168.868 360.782 175.843C360.218 177.89 358.932 178.231 358.963 180.357C380.92 184.869 400.239 200.133 410.446 220.051C413.464 224.13 417.009 233.741 418.338 238.681C418.638 242.047 418.981 244.021 420.047 247.196C423.457 256.223 425.214 263.802 426.476 273.409C420.873 273.914 417.389 274.299 413.593 278.883C436.352 279.092 451.182 301.317 463.992 317.656C480.708 338.986 496.132 356.435 520.422 369.732C529.563 374.786 539.323 378.632 549.451 381.174C558.868 383.586 576.105 383.039 578.089 394.21C572.614 396.181 560.454 400.587 556.076 404.272C549.316 402.815 541.748 403.295 534.921 403.93C509.155 404.445 491.472 404.408 466.612 394.881C437.05 383.553 414.266 356.967 401.977 328.16C402.253 333.158 402.547 337.774 403.533 342.683C408.933 375.909 403.778 403.293 394.728 434.728C390.938 447.891 390.809 456.005 385.041 469.74C381.918 465.625 378.949 461.402 376.126 457.076C372.262 470.291 369.17 478.612 359.557 489.04C358.443 486.327 357.187 483.015 355.914 480.431C352.203 486.811 348.321 489.248 342.272 493.185C342.492 494.679 343.411 498.91 342.915 499.902C342.529 505.07 342.259 510.25 342.1 515.43C308.325 541.288 273.134 555.022 230.691 558.261C221.07 581.584 204.4 599.438 181.002 609.199C178.337 610.313 175.438 611.556 172.551 611.421C169.189 608.843 173.51 605.47 172.483 601.802C170.033 601.19 166.819 602.769 164.893 604.104C153.602 611.942 149.496 616.999 134.566 617.03C130.704 614.868 127.469 613.625 126.23 608.996L125.653 608.292C120.109 604.269 122.619 591.962 123.055 585.68C123.812 583.739 126.592 581.865 126.66 579.379L125.169 578.436C121.18 581.296 114.355 587.358 110.625 589.243C106.576 585.974 107.687 574.597 108.848 569.711C110.767 561.622 114.78 555.891 119.749 549.444C113.742 551.464 107.299 553.228 100.935 553.32C90.2635 553.828 82.9894 550.993 73.7821 546.192C77.6654 544.123 80.2211 542.249 83.8068 539.702C92.4868 532.232 97.7478 525.576 103.683 515.957C106.55 511.107 108.362 507.427 110.783 502.308C133.345 515.706 156.693 523.268 183.004 520.059C179.85 518.847 167.107 516.202 162.731 515.014C138.966 508.548 123.253 502.064 104.143 486.664C74.4293 463.844 57.0074 422.15 60.2312 385.034C61.7712 363.522 68.561 350.521 76.6386 331.576C81.5125 288.95 84.3658 262.167 108.124 223.396C128.419 190.279 165.203 156.779 203.601 147.993Z" fill="#FEFBF2"/>
<path d="M403.533 342.683C408.933 375.909 403.778 403.293 394.728 434.728C390.938 447.891 390.809 456.005 385.041 469.74C381.918 465.625 378.949 461.402 376.126 457.076C372.262 470.291 369.17 478.612 359.557 489.04C358.443 486.327 357.187 483.015 355.914 480.431C352.203 486.811 348.321 489.248 342.272 493.185C342.492 494.679 343.41 498.91 342.915 499.902C342.529 505.07 342.259 510.25 342.1 515.43C308.325 541.288 273.134 555.022 230.691 558.261C221.07 581.584 204.4 599.438 181.002 609.199C178.337 610.313 175.438 611.556 172.551 611.421C169.189 608.843 173.51 605.47 172.483 601.802C170.033 601.19 166.819 602.769 164.893 604.104C153.602 611.942 149.496 616.999 134.566 617.03C130.704 614.868 127.469 613.625 126.23 608.996L125.653 608.292C120.108 604.27 122.619 591.962 123.055 585.68C123.812 583.739 126.592 581.865 126.66 579.379L125.169 578.436C121.18 581.296 114.355 587.358 110.625 589.243C106.576 585.974 107.687 574.597 108.848 569.711C110.767 561.622 114.78 555.891 119.749 549.444C113.742 551.464 107.299 553.228 100.935 553.32C90.2635 553.828 82.9893 550.993 73.7821 546.192C77.6653 544.123 80.2211 542.249 83.8068 539.702C92.4868 532.232 97.7477 525.576 103.683 515.957C106.55 511.107 108.362 507.427 110.783 502.308C133.345 515.706 156.693 523.268 183.004 520.059C179.85 518.847 167.107 516.202 162.731 515.014C138.966 508.548 123.253 502.064 104.143 486.664C105.293 484.986 104.697 485.397 106.318 484.49C114.115 487.76 121.375 492.285 128.964 496.014C135.286 499.118 142.303 501.347 149.025 503.453C194.475 517.69 251.288 518.124 296.453 502.847C352.669 483.835 387.772 440.631 397.673 382.403C399.112 373.929 400.232 349.117 403.227 343.257C403.325 343.065 403.429 342.875 403.533 342.683Z" fill="#F7E0C7"/>
<path d="M103.683 515.957C108.271 519.925 115.384 527.34 120.277 530.358C139.075 541.949 160.557 548.237 182.715 546.958C188.628 546.615 210.635 541.882 212.538 542.751C208.728 564.531 197.022 581.633 176.471 590.407C177.331 579.465 177.941 571.97 176.727 560.894C166.382 582.38 154.85 595.942 131.489 604.704C130.403 605.114 129.472 605.298 128.411 605.782L125.653 608.292C120.108 604.27 122.619 591.962 123.055 585.68C123.812 583.739 126.592 581.865 126.66 579.379L125.169 578.436C121.18 581.296 114.355 587.358 110.625 589.243C106.576 585.974 107.687 574.597 108.848 569.711C110.767 561.622 114.78 555.891 119.749 549.444C113.742 551.464 107.299 553.228 100.935 553.32C90.2635 553.828 82.9893 550.993 73.7821 546.192C77.6653 544.123 80.2211 542.249 83.8068 539.702C92.4868 532.232 97.7477 525.576 103.683 515.957Z" fill="#FEFBF2"/>
<path d="M125.169 578.436C126.566 576.269 130.496 573.648 132.716 571.97C128.283 586.684 128.818 590.682 128.411 605.782L125.653 608.292C120.108 604.27 122.619 591.962 123.055 585.68C123.812 583.739 126.592 581.865 126.66 579.379L125.169 578.436Z" fill="#F4AF80"/>
<path d="M73.7821 546.192C77.6653 544.123 80.2211 542.249 83.8068 539.702C86.1727 542.218 87.908 545.017 89.8165 547.876C93.8388 549.474 99.2981 550.264 100.935 553.32C90.2635 553.828 82.9893 550.993 73.7821 546.192Z" fill="#F7E0C7"/>
<path d="M269.421 516.881C272.283 517.2 274.223 517.439 276.33 519.502L276.444 519.955C259.046 526.531 239.729 529.434 221.139 529.427C221.623 549.297 216.191 566.888 202.438 581.547C197.069 587.272 179.204 601.092 171.393 596.524C169.427 593.444 170.665 588.729 171.167 584.847C160.942 597.228 143.401 611.146 126.23 608.996L125.653 608.292L128.411 605.782C129.472 605.298 130.403 605.114 131.489 604.704C154.85 595.942 166.382 582.38 176.727 560.894C177.941 571.97 177.331 579.465 176.47 590.407C197.022 581.633 208.728 564.531 212.538 542.751C214.227 536.028 213.234 528.227 212.529 521.455C228.583 521.48 253.664 520.194 269.421 516.881Z" fill="#714012"/>
<path d="M334.667 498.139C336.461 499.198 337.012 499.743 339.002 500.269C334.979 503.276 326.468 504.899 321.612 505.958C325.084 503.386 330.773 500.361 334.667 498.139Z" fill="#F4AF80"/>
<path d="M269.421 516.881C277.127 515.889 283.346 514.726 290.945 513.434C287.631 515.155 280.044 519.055 276.444 519.955L276.33 519.502C274.223 517.439 272.283 517.2 269.421 516.881Z" fill="#B5743D"/>
<path d="M334.667 498.139C337.079 496.749 339.908 494.759 342.272 493.185C342.492 494.679 343.411 498.91 342.915 499.902C341.194 499.388 341.023 499.786 339.002 500.27C337.012 499.743 336.461 499.198 334.667 498.139Z" fill="#713F13"/>
<path d="M60.2312 385.034C61.7711 363.522 68.561 350.521 76.6385 331.577C90.4533 335.653 97.4734 353.032 93.1732 366.262C90.8415 373.241 85.817 378.998 79.2182 382.252C73.6989 384.993 66.3279 386.13 60.2312 385.034Z" fill="#F7E0C7"/>
<path d="M77.3611 349.993C77.8638 350.589 77.5723 350.154 77.8601 351.481C76.2608 355.984 72.8661 360.352 70.0226 364.194L69.0325 362.821C68.9584 358.246 74.283 353.209 77.3611 349.993Z" fill="#F4AF80"/>
<path d="M410.446 220.051C413.464 224.13 417.009 233.741 418.338 238.681C418.638 242.047 418.981 244.021 420.047 247.196C423.457 256.223 425.214 263.802 426.476 273.409C420.873 273.914 417.389 274.299 413.593 278.883C407.953 249.973 405.639 245.065 391.617 219.702C393.766 220.545 395.922 221.352 398.095 222.122C403.686 224.05 405.706 222.364 410.446 220.051Z" fill="#F7E0C7"/>
<path d="M420.047 247.196C416.403 245.201 409.686 240.344 409.588 235.893L410.519 234.957C413.96 235.641 414.07 238.676 417.518 239.577L418.338 238.681C418.638 242.047 418.981 244.021 420.047 247.196Z" fill="#B5743D"/>
<path d="M359.079 156.921C362.398 163.345 362.698 168.868 360.782 175.843C360.218 177.89 358.932 178.231 358.963 180.357L347.537 181.234C347.648 181.068 347.752 180.903 347.862 180.737C352.803 175.466 355.057 160.826 359.079 156.921Z" fill="#F7E0C7"/>
<path d="M112.943 371.443C117.427 370.269 121.896 371.089 126.118 372.884C139.476 378.563 157.82 378.455 167.306 390.429C172.178 407.995 140.29 412.83 128.606 412.458C125.82 422.881 126.237 428.355 128.036 438.759C130.851 441.938 133.433 444.499 136.963 446.925C146.131 453.162 157.397 455.519 168.296 453.478C174.939 452.229 179.909 449.552 185.148 445.428C188.961 442.427 190.535 435.44 195.064 434.597C198.552 436.746 196.388 443.007 194.472 445.722C187.051 456.247 176.771 459.521 164.63 461.621C152.739 496.541 109.423 490.326 105.999 448.402C105.137 448.062 104.28 447.71 103.428 447.347C98.3619 445.177 87.0514 437.161 90.2384 430.637C97.6779 430.533 98.1249 448.721 122.635 439.606C120.268 427.811 120.339 422.106 123.046 410.512C110.793 403.197 95.8943 381.232 112.943 371.443Z" fill="#552E08"/>
<path d="M112.943 371.443C117.427 370.269 121.896 371.089 126.118 372.884C139.476 378.563 157.82 378.455 167.306 390.429C166.716 390.679 165.818 391.028 165.259 391.311C152.66 397.686 144.689 394.833 134.337 405.729C122.997 406.08 121.84 401.4 117.349 391.414C115.352 386.973 112.921 380.713 113.195 375.899C113.315 373.785 113.504 373.486 112.943 371.443Z" fill="#B16F3A"/>
<path d="M125.616 445.54C128.378 448.581 131.486 451.29 134.877 453.611C143.94 458.755 147.63 459.883 157.877 461.36C156.378 464.835 154.999 468.124 152.211 470.842C151.31 471.785 150.362 472.679 149.368 473.53C139.627 481.772 127.141 479.035 119.315 469.697L117.294 466.63C117.187 466.097 115.32 461.903 114.993 461.117C113.168 456.721 112.52 453.611 111.842 448.946C117.174 448.245 120.488 447.194 125.616 445.54Z" fill="#ED8956"/>
<path d="M119.315 469.697C124.998 465.025 129.466 462.937 137.11 463.568C141.457 463.923 149.765 467.156 152.211 470.842C151.31 471.785 150.362 472.679 149.368 473.53C139.627 481.772 127.141 479.035 119.315 469.697Z" fill="#F4AF80"/>
<path d="M125.616 445.54C128.378 448.581 131.486 451.29 134.877 453.611C125.391 457.707 123.486 458.37 117.294 466.63C117.187 466.097 115.32 461.903 114.993 461.117C113.168 456.721 112.52 453.611 111.842 448.946C117.174 448.245 120.488 447.194 125.616 445.54Z" fill="#904E20"/>
<path d="M296.077 398.043C346.68 399.236 356.71 452.652 306.286 461.474C286.694 461.318 263.347 452.898 261.447 430.084C260.778 422.806 263.088 415.569 267.849 410.026C275.347 401.29 285.237 398.88 296.077 398.043Z" fill="#F7E0C7"/>
<path d="M296.283 415.948L298.251 416.133L298.706 417.026C297.306 422.94 289.561 429.864 285.134 434.128C284.474 434.405 284.942 434.262 283.667 434.168C285.241 426.843 289.867 419.868 296.283 415.948Z" fill="#FDCEAC"/>
<path d="M310.854 421.764C312.869 422.176 312.85 421.846 314.216 423.037C313.824 427.003 306.654 432.39 303.458 435.193L301.376 436.008L300.549 435.402C300.843 431.335 307.836 424.527 310.854 421.764Z" fill="#FDCEAC"/>
<path d="M281.683 331.105C314.387 326.617 309.085 386.097 278.767 395.291C247.083 400.6 250.845 341.334 281.683 331.105Z" fill="#271605"/>
<path d="M290.561 341.942C300.329 343.225 299.741 352.931 292.287 357.69C282.869 356.439 283.323 346.972 290.561 341.942Z" fill="#FEFBF2"/>
<path d="M114.587 277.244C139.169 279.117 131.447 332.4 106.791 340.527C80.0717 340.211 89.2195 283.482 114.587 277.244Z" fill="#271605"/>
<path d="M118.04 288.035C126.61 289.976 125.098 298.703 118.984 302.992C117.026 302.591 115.861 302.471 114.491 300.778C113.423 299.471 112.917 297.794 113.084 296.115C113.488 291.978 115.034 290.465 118.04 288.035Z" fill="#FEFBF2"/>
<path d="M237.782 151.876C240.992 151.675 244.76 151.774 248.018 151.779C233.242 156.661 221.219 166.708 216.962 182.249C215.727 186.757 215 192.488 217.471 196.676C218.485 197.286 219.527 198.13 220.836 197.356C232.528 190.442 242.048 184.59 255.632 182.6L253.438 184.448C247.225 189.729 229.071 203.046 222.508 204.653C201.607 209.224 206.712 177.581 214.806 167.37C221.846 158.49 225.751 154.143 237.782 151.876Z" fill="#9D602C"/>
<path d="M308.932 266.869C334.22 265.296 343.521 296.98 334.881 299.759C333.026 298.819 333.54 298.965 332.242 296.928C325.96 285.57 316.218 275.992 302.141 276.63C299.606 276.745 299.106 276.381 297.457 274.706C297.376 270.331 305.503 267.704 308.932 266.869Z" fill="#271605"/>
<path d="M313.303 174.829L314.638 175.112C315.471 176.197 316.334 177.038 316.053 178.571C313.34 193.406 298.977 200.353 285.508 200.843C284.038 200.763 284.505 200.803 283.077 200.241L282.814 198.826C287.432 186.772 303.145 180.315 313.303 174.829Z" fill="#F7E0C7"/>
<path d="M128.755 216.006C137.689 215.248 149.334 224.993 144.978 231.963C144.362 232.236 143.745 232.509 143.128 232.781C136.72 230.077 134.867 227.515 127.68 227.715L126.893 227.744C122.256 228.791 113.725 234.235 110.429 232.979C110.005 231.474 110.055 230.952 111.069 229.201C115.577 221.422 120.49 218.322 128.755 216.006Z" fill="#271605"/>
<path d="M342.1 515.43C342.033 533.273 344.384 548.488 351.266 565.094C354.726 564.708 356.722 565.498 360.028 566.417C381.722 571.946 395.928 568.119 417.248 565.376C464.598 559.29 492.207 577.604 518.689 614.66C515.229 602.537 513.858 598.526 506.669 588.019C520.171 578.075 528.363 564.225 530.861 547.601C531.761 541.404 531.866 535.116 531.168 528.895C544.393 535.33 552.739 544.374 557.637 558.512C563.656 575.92 560.203 588.748 553.486 605.041C566.889 592.764 573.655 577.763 575.921 559.755C584.665 577.181 587.065 598.502 578.15 616.473C568.886 618.585 561.832 643.316 531.615 644.216C529.612 638.454 528.069 636.128 524.714 631.009C528.486 651.025 531.67 677.905 529.802 696.752C525.994 735.07 523.214 743.134 541.516 775.966C547.577 786.853 543.187 857.702 539.807 872.471C539.464 875.429 539.177 878.398 538.932 881.368C534.688 911.077 522.718 917.506 493.646 916.147C494.105 911.799 497.932 894.796 495.611 892.267C490.902 895.286 487.688 909.76 486.769 915.002C483.408 914.132 479.409 913.373 477.377 910.385C472.503 903.197 476.581 887.583 477.799 879.243L478.558 873.512C478.558 857.543 480.132 850.93 478.326 833.173C477.756 828.446 476.93 823.75 475.858 819.109C474.572 813.586 472.968 811.296 474.425 805.846C471.339 801.285 456.148 794.004 450.539 789.706C436.554 778.984 429.678 770.314 420.169 756.041C419.44 758.876 419.489 759.213 417.652 761.362L419.673 767.234C400.159 774.827 380.173 780.056 359.055 779.866C359.643 775.605 360.133 772.029 360.384 767.743C359.71 762.324 360.304 757.633 359.845 752.27C358.675 751.498 358.112 750.831 356.924 750.751C355.32 754.443 356.299 758.38 354.126 761.093C353.164 765.091 352.515 769.451 351.824 773.517C345.75 809.3 337.049 844.905 326.609 879.666C325.672 882.788 324.674 886.303 323.443 889.322L321.453 895.867C317.424 905.358 313.952 917.151 305.368 923.813C294.258 932.428 275.231 932.569 261.976 931.173C263.052 924.119 268.185 911.261 267.637 906.803L266.809 906.381C260.907 910.336 256.309 922.876 254.384 929.452C251.042 928.191 248.116 927.364 246.18 924.113C241.98 917.065 249.476 898.837 252 890.92C252.694 889.352 253.236 886.573 253.656 884.815C261.504 843.203 263.428 797.501 250.051 756.819L248.833 756.911C247.293 757.009 246.895 756.966 245.325 756.727C244.45 758.142 244.621 759.409 244.575 761.105C245.352 765.483 246.443 770.798 246.77 775.127C228.706 772.2 219.574 769.194 202.307 763.26C214.03 774.313 230.562 780.307 246.03 783.803C245.834 803.036 241.141 855.363 233.152 871.847L231.508 878.925C229.753 878.337 216.319 882.384 210.939 882.819C207.509 882.568 199.585 882.935 195.795 882.942C184.036 882.041 176.355 879.464 166.661 873.12L167.98 867.12C174.369 838.341 172.339 811.045 168.394 782.254L160.419 745.706C159.898 742.375 160.101 741.671 161.844 739.136C143.542 719.297 135.851 694.689 144.396 668.757C136.337 676.001 130.665 687.598 126.409 697.383C115.493 682.791 114.508 663.038 121.162 646.408C122.616 642.777 125.965 639.759 127.563 635.754C121.723 638.265 118.357 639.642 112.239 641.283C100.916 643.237 97.0356 642.912 85.9161 640.438L91.5818 635.166C101.587 623.747 105.272 612.444 111.726 599.316C113.079 596.561 120.626 588.478 123.055 585.68C122.619 591.962 120.108 604.269 125.653 608.292L126.23 608.996C127.469 613.625 130.704 614.868 134.566 617.03C149.496 616.999 153.602 611.942 164.893 604.104C166.819 602.769 170.033 601.19 172.483 601.802C173.51 605.47 169.189 608.843 172.551 611.421C175.438 611.556 178.337 610.313 181.002 609.199C204.4 599.438 221.07 581.584 230.691 558.261C273.134 555.022 308.325 541.288 342.1 515.43Z" fill="#FEFBF2"/>
<path d="M127.563 635.754C129.235 633.697 130.771 632.974 133.042 631.572C127.76 642.122 121.997 654.834 125.985 666.633C126.903 669.345 127.405 671.078 129.716 672.762C132.673 672.364 147.836 656.897 152.34 653.468C151.626 662.83 150.95 670.251 152.923 679.681C160.96 718.072 198.961 743.734 236.124 748.522C237.211 748.657 237.809 748.559 238.846 748.259C239.54 746.692 239.734 746.379 240.082 744.726L241.878 748.449C242.817 752.662 243.716 756.88 244.575 761.105C245.352 765.483 246.443 770.798 246.77 775.127C228.706 772.2 219.574 769.194 202.307 763.261C214.03 774.313 230.562 780.307 246.03 783.803C245.834 803.036 241.141 855.363 233.152 871.847L231.508 878.925C229.753 878.337 216.319 882.384 210.939 882.819C207.509 882.568 199.585 882.935 195.795 882.942C184.036 882.042 176.355 879.464 166.661 873.12L167.98 867.12C174.369 838.341 172.339 811.045 168.394 782.254L160.419 745.706C159.898 742.375 160.101 741.671 161.844 739.136C143.542 719.297 135.851 694.689 144.396 668.757C136.337 676.001 130.665 687.598 126.409 697.383C115.493 682.791 114.508 663.039 121.162 646.408C122.616 642.777 125.965 639.759 127.563 635.754Z" fill="#F7E0C7"/>
<path d="M168.394 782.254C171.418 781.342 177.483 784.691 180.157 786.222C192.753 793.417 211.906 804.683 215.775 819.807C220.384 837.827 216.56 860.17 212.455 877.847C211.744 879.776 211.342 880.762 210.939 882.819C207.509 882.568 199.585 882.936 195.795 882.942C184.036 882.042 176.355 879.464 166.661 873.12L167.98 867.12C174.369 838.341 172.339 811.045 168.394 782.254Z" fill="#FEFBF2"/>
<path d="M167.98 867.12C178.919 877.1 195.676 878.631 209.852 877.994C210.72 877.957 211.588 877.908 212.455 877.847C211.744 879.776 211.342 880.762 210.939 882.819C207.509 882.568 199.585 882.935 195.795 882.942C184.036 882.041 176.355 879.464 166.661 873.12L167.98 867.12Z" fill="#904E20"/>
<path d="M233.152 871.847L231.508 878.925C229.753 878.337 216.319 882.384 210.939 882.819C211.342 880.762 211.744 879.776 212.455 877.847C221.212 876.898 225.319 875.551 233.152 871.847Z" fill="#713F13"/>
<path d="M161.844 739.136L170.548 747.849L168.48 749.514C165.539 748.265 162.3 745.259 160.419 745.706C159.898 742.375 160.101 741.671 161.844 739.136Z" fill="#B5743D"/>
<path d="M170.548 747.849C172.904 750.023 175.498 752.331 177.783 754.548C174.449 752.913 171.563 751.615 168.48 749.514L170.548 747.849Z" fill="#F4AF80"/>
<path d="M539.807 872.471C539.464 875.429 539.176 878.398 538.932 881.368C534.688 911.077 522.718 917.506 493.646 916.147C494.105 911.799 497.932 894.796 495.611 892.267C490.902 895.286 487.688 909.761 486.769 915.002C483.408 914.132 479.409 913.373 477.377 910.385C472.503 903.197 476.581 887.583 477.799 879.243L478.558 873.512C494.693 884.987 523.563 883.15 539.807 872.471Z" fill="#B5743D"/>
<path d="M539.807 872.471C539.464 875.429 539.177 878.398 538.932 881.368L538.589 879.739C535.558 878.919 531.161 881.637 527.984 882.531C509.529 887.736 494.742 888.109 477.799 879.243L478.558 873.512C494.693 884.987 523.563 883.15 539.807 872.471Z" fill="#905524"/>
<path d="M252 890.92C269.795 902.039 289.567 903.399 309.764 898.764C313.671 897.845 317.571 896.884 321.453 895.867C317.424 905.358 313.952 917.151 305.368 923.813C294.258 932.428 275.231 932.569 261.976 931.173C263.052 924.119 268.185 911.261 267.637 906.803L266.809 906.381C260.907 910.336 256.309 922.876 254.384 929.452C251.042 928.191 248.116 927.364 246.18 924.113C241.98 917.065 249.476 898.837 252 890.92Z" fill="#B5743D"/>
<path d="M361.437 752.417C378.967 754.554 395.218 752.423 411.86 746.875L413.789 749.771C416.067 749.184 414.977 749.073 417.15 750.255C418.167 752.117 419.318 754.125 420.169 756.041C419.44 758.876 419.489 759.213 417.652 761.362L419.673 767.234C400.159 774.827 380.173 780.056 359.055 779.866C359.643 775.605 360.133 772.029 360.384 767.743C361.278 763.432 361.284 756.966 361.437 752.417Z" fill="#F7E0C7"/>
<path d="M413.789 749.771C416.067 749.184 414.977 749.073 417.15 750.255C418.167 752.117 419.318 754.125 420.169 756.041C419.44 758.876 419.489 759.213 417.652 761.362C416.287 758.105 414.891 753.243 413.789 749.771Z" fill="#F4AF80"/>
<path d="M417.395 749.606C421.522 752.453 426.359 757.989 429.745 761.742C439.506 772.641 451.286 779.713 463.753 787.018C470.898 791.206 481.228 794.917 482.422 804.089C483.322 811.026 482.63 827.902 478.326 833.174C477.756 828.447 476.93 823.75 475.858 819.109C474.572 813.586 472.968 811.296 474.425 805.846C471.339 801.285 456.148 794.004 450.539 789.706C436.554 778.985 429.678 770.314 420.169 756.042C419.318 754.125 418.167 752.117 417.15 750.255L417.395 749.606Z" fill="#F7E0C7"/>
<path d="M253.656 884.815C269.972 899.4 304.78 898.604 323.443 889.322L321.453 895.867C317.571 896.884 313.671 897.845 309.764 898.764C289.567 903.399 269.796 902.039 252 890.92C252.694 889.352 253.236 886.573 253.656 884.815Z" fill="#904E20"/>
<path d="M85.9161 640.438L91.5818 635.166C94.4584 635.227 109.35 639.887 112.239 641.283C100.916 643.237 97.0356 642.912 85.9161 640.438Z" fill="#F4AF80"/>
<path d="M356.22 742.222L361.069 742.607C361.192 745.742 361.406 749.306 361.437 752.417C361.284 756.966 361.278 763.432 360.384 767.742C359.71 762.324 360.304 757.633 359.845 752.27C358.675 751.498 358.112 750.831 356.924 750.751C355.32 754.443 356.299 758.38 354.126 761.093C354.138 757.431 355.767 746.361 356.22 742.222Z" fill="#9D602C"/>
<path d="M244.696 744.512C246.595 748.663 248.404 752.564 250.051 756.819L248.833 756.911C247.293 757.009 246.895 756.966 245.325 756.727C244.45 758.142 244.621 759.409 244.575 761.105C243.716 756.88 242.817 752.661 241.878 748.449C243.586 746.722 243.535 746.692 244.696 744.512Z" fill="#9D602C"/>
<path d="M351.266 565.094C354.726 564.709 356.722 565.498 360.028 566.417C360.42 568.033 360.61 569.038 361.198 570.605C359.532 571.995 357.916 573.36 356.201 574.683C354.205 571.352 352.92 568.597 351.266 565.094Z" fill="#713F13"/>
<path d="M238.458 734.158C240.845 737.274 243.35 740.795 244.696 744.512C243.535 746.692 243.586 746.722 241.878 748.449L240.082 744.726C239.123 740.654 238.888 738.303 238.458 734.158Z" fill="#F4AF80"/>
<path d="M361.198 570.605L363.139 577.708L358.914 579.324L356.201 574.683C357.916 573.36 359.532 571.995 361.198 570.605Z" fill="#9D602C"/>
<path d="M357.249 733.686L360.224 734.139C360.5 736.834 360.898 739.938 361.069 742.608L356.22 742.222L357.249 733.686Z" fill="#B5743D"/>
<path d="M363.139 577.708C364.174 581.4 365.282 585.184 366.225 588.888C363.359 585.447 361.369 583.053 358.914 579.324L363.139 577.708Z" fill="#B5743D"/>
<path d="M411.86 746.875C411.364 743.55 411.193 742.24 411.266 738.903C413.274 742.442 415.301 746.128 417.395 749.606L417.15 750.255C414.977 749.073 416.067 749.184 413.789 749.771L411.86 746.875Z" fill="#F7E0C7"/>
<path d="M358.075 722.854C358.951 726.7 359.839 730.202 360.224 734.139L357.249 733.686C357.426 730.08 357.53 726.424 358.075 722.854Z" fill="#F4AF80"/>
<path d="M368.515 788.047C388.617 785.046 404.053 782.181 423.028 773.621C429.182 782.242 434.056 787.116 442.267 793.931C441.459 807.898 430.805 852.859 424.718 865.111L422.63 871.688C419.936 878.643 416.489 887.014 410.152 891.257C401.212 897.239 387.245 897.827 377.014 895.874C378.165 891.324 382.714 880.921 381.808 877.37L380.773 877.376C375.312 881.87 373.254 888.269 370.805 894.692C368.527 893.614 365.851 892.641 364.958 890.24C362.747 884.283 368.827 871.277 371.038 865.405C371.993 863.281 372.501 862.466 372.795 860.115C376.818 847.893 379.347 835.231 380.332 822.397C380.657 817.78 380.388 809.918 380.994 805.92L381.569 806.385C377.308 800.746 372.03 794.078 368.515 788.047Z" fill="#F7E0C7"/>
<path d="M371.038 865.405C386.768 876.316 403.894 875.337 421.816 870.885L422.63 871.687C419.936 878.643 416.489 887.013 410.152 891.257C401.212 897.239 387.245 897.827 377.014 895.873C378.165 891.324 382.714 880.921 381.808 877.37L380.773 877.376C375.312 881.87 373.254 888.269 370.805 894.692C368.527 893.614 365.851 892.64 364.958 890.24C362.747 884.283 368.827 871.277 371.038 865.405Z" fill="#9D602C"/>
<path d="M371.038 865.405C371.993 863.28 372.501 862.466 372.795 860.115C380.939 867.891 392.805 869.857 403.71 869.655C410.948 869.593 418.099 868.044 424.718 865.111L422.63 871.687L421.816 870.885C403.894 875.337 386.768 876.316 371.038 865.405Z" fill="#713F13"/>
<path d="M411.45 359.133C429.739 385.98 451.445 401.933 483.72 408.36C495.146 410.635 525.834 411.952 534.921 403.93C541.748 403.295 549.316 402.815 556.076 404.272C560.454 400.587 572.614 396.181 578.088 394.21C577.225 406.774 571.696 416.987 561.342 425.742C526.055 455.58 468.523 453.202 436.426 419.489C436.328 419.358 436.224 419.227 436.126 419.096C428.215 411.34 419.006 397.203 415.595 386.677C412.227 380.442 412.729 366.981 411.45 359.133Z" fill="#FBBA90"/>
<path d="M556.076 404.272C560.454 400.587 572.614 396.181 578.088 394.21C577.225 406.774 571.696 416.987 561.342 425.742C526.055 455.58 468.523 453.202 436.426 419.489C436.328 419.358 436.224 419.227 436.126 419.096L435.611 417.988L436.156 416.806L435.997 416.534L435.513 416.91L435.654 416.069C437.179 417.183 436.909 417.257 438.71 417.651C460.526 438.097 487.988 446.14 517.385 441.503C532.227 438.731 549.622 431.879 558.905 419.399C563.344 413.433 562.016 408.121 556.076 404.272Z" fill="#F7E0C7"/>
<path d="M415.595 386.677L416.422 386.297C418.142 390.759 420.187 393.656 422.949 397.554C426.31 402.304 429.415 407.306 433.113 411.812C434.876 413.963 436.989 415.393 438.71 417.651C436.909 417.257 437.179 417.183 435.654 416.068L435.513 416.91L435.997 416.534L436.156 416.806L435.611 417.988L436.126 419.096C428.215 411.34 419.006 397.203 415.595 386.677Z" fill="#F7E0C7"/>
<path d="M26.4013 263.056C19.5735 254.314 14.5263 244.316 11.545 233.632C8.21098 221.687 6.10345 205.69 12.0355 194.257C16.7508 185.17 27.111 196.569 31.5728 200.148C48.8466 214.005 66.7112 216.442 88.047 213.802C93.8504 212.212 102.055 210.176 107.444 207.929C96.6798 224.326 91.1605 234.584 83.6353 252.775C72.086 254.768 67.1741 254.248 55.7711 251.794C47.5895 249.322 41.7984 246.006 34.8138 241.104C35.393 244.962 40.3147 248.956 43.3763 251.239C45.951 253.154 48.6709 254.866 51.5114 256.36C63.2982 260.887 68.2254 262.003 80.973 261.125C78.0523 270.351 75.1788 281.333 73.9058 290.917C72.5703 290.696 68.1085 290.059 67.1067 289.651C51.8585 287.046 34.9142 275.984 26.4013 263.056Z" fill="#FEFBF2"/>
<path d="M26.4014 263.056C28.2695 259.703 19.8974 247.948 19.5852 242.367C18.6318 225.356 28.4863 232.665 34.8138 241.104C35.3931 244.962 40.3148 248.956 43.3763 251.239C45.951 253.154 48.6709 254.866 51.5114 256.36C63.2982 260.887 68.2254 262.003 80.973 261.125C78.0523 270.351 75.1788 281.333 73.9058 290.917C72.5704 290.696 68.1085 290.059 67.1068 289.651C51.8585 287.046 34.9142 275.984 26.4014 263.056Z" fill="#FDCEAC"/>
<path d="M51.5114 256.36C63.2982 260.887 68.2254 262.003 80.973 261.125C78.0523 270.351 75.1788 281.333 73.9058 290.917C72.5703 290.696 68.1085 290.059 67.1067 289.651L67.25 288.855C62.2475 286.698 56.1214 284.816 51.6516 282.148C57.2713 277.677 58.3373 276.621 61.7962 270.207C58.0195 265.174 52.987 262.539 51.5114 256.36Z" fill="#F4AF80"/>
<path d="M88.0469 213.802C93.8504 212.212 102.055 210.176 107.444 207.929C96.6798 224.326 91.1605 234.584 83.6353 252.775C72.086 254.768 67.1741 254.248 55.7711 251.794C70.2699 251.068 86.7948 227.053 88.8576 214.711L88.0469 213.802Z" fill="#F7E0C7"/>
<path d="M410.525 155.806L418.081 152.493C418.706 153.279 429.623 159.497 432.482 161.985C430.492 163.414 429.378 163.586 429.047 165.346L430.015 167.629C438.012 177.055 439.977 181.06 444.171 192.371C445.506 199.292 446.216 202.29 446.051 209.387C438.012 216.196 428.992 225.078 423.665 234.264C421.136 226.817 419.183 222.879 415.246 216.035C406.943 199.284 391.832 187.139 375.25 179.26C383.4 171.02 399.969 160.616 410.525 155.806Z" fill="#B5743D"/>
<path d="M444.171 192.372C445.506 199.292 446.216 202.29 446.051 209.388C438.012 216.196 428.992 225.078 423.665 234.264C421.136 226.817 419.183 222.879 415.246 216.035C427.229 206.186 427.982 201.393 444.171 192.372Z" fill="#9D602C"/>
<path d="M410.525 155.806L418.081 152.493C418.706 153.279 429.623 159.497 432.482 161.985C430.492 163.414 429.378 163.586 429.047 165.346L430.015 167.629C422.937 161.236 419.269 159.41 410.525 155.806Z" fill="#713F13"/>
<path d="M229.409 49.1626C232.806 45.749 236.503 42.6495 240.458 39.9009C260.874 25.5148 287.17 18.5535 311.956 23.1403C316.922 24.0593 338.977 30.284 337.293 36.8828C334.446 37.7921 327.086 38.492 323.823 38.9224C315.728 39.934 307.842 42.178 300.433 45.5769C288.334 53.4255 283.04 57.1073 274.84 69.0937C272.278 65.5748 270.328 62.6498 267.145 59.6612C254.627 49.6059 245.346 48.1125 229.409 49.1626Z" fill="#B5743D"/>
<path d="M267.145 59.6613C273.676 53.0043 287.854 43.9232 296.581 41.0852L297.595 41.6742C298.592 43.4928 298.891 44.1026 300.433 45.5771C288.334 53.4256 283.04 57.1074 274.84 69.0939C272.278 65.575 270.328 62.65 267.145 59.6613Z" fill="#9D602C"/>
<path d="M418.081 152.493C436.413 145.82 450.515 144.183 469.802 148.695C478.644 159.631 484.253 173.465 481.7 187.698C480.438 191.822 479.397 195.252 477.787 199.243C467.065 199.389 461.071 200.777 451.556 206.113C451.225 200.609 451.09 195.817 449.517 190.497C446.351 178.827 441.147 170.3 432.482 161.985C429.623 159.497 418.706 153.28 418.081 152.493Z" fill="#B5743D"/>
<path d="M449.517 190.497C459.681 185.153 470.8 186.107 481.699 187.698C480.438 191.822 479.397 195.252 477.787 199.243C467.065 199.389 461.071 200.777 451.556 206.113C451.225 200.609 451.09 195.817 449.517 190.497Z" fill="#9D602C"/>
<path d="M478.295 151.543C495.342 158.873 507.796 169.67 518.848 184.491L522.895 190.038C527.965 197.471 545.263 229.521 540.848 237.584C539.47 237.628 537.866 235.921 536.721 234.768C528.62 226.597 522.301 220.001 513.068 212.979C500.871 205.113 497.179 203.252 483.047 199.51C485.784 194.834 486.322 192.424 487.437 187.299C489.066 174.069 485.539 162.513 478.295 151.543Z" fill="#B5743D"/>
<path d="M483.047 199.51C485.784 194.834 486.322 192.424 487.437 187.299C489.531 192.399 516.374 197.203 513.068 212.979C500.871 205.113 497.179 203.252 483.047 199.51Z" fill="#9D602C"/>
<path d="M518.848 184.491L522.895 190.038C520.728 192.505 519.809 202.611 515.707 204.9C514.335 203.951 514.813 204.551 514.397 202.963C516.576 200.005 518.438 188.943 518.805 185.023L518.848 184.491Z" fill="#9D602C"/>
<path d="M222.186 56.8268C237.127 53.6024 250.087 53.1824 262.815 63.3277C266.488 66.6941 268.339 69.4446 271.249 73.4564C268.117 82.7604 265.265 85.5506 262.471 96.7858C260.629 89.9372 259.481 88.0948 252.444 85.8262C237.319 79.4741 220.884 87.5357 208.184 94.9716C204.569 97.0877 200.006 98.8646 196.152 100.862C200.662 87.3759 210.96 65.8424 222.186 56.8268Z" fill="#B5743D"/>
<path d="M262.815 63.3276C266.488 66.6941 268.339 69.4446 271.249 73.4564C268.117 82.7603 265.265 85.5506 262.471 96.7858C260.629 89.9372 259.481 88.0947 252.444 85.8262C255.152 78.2428 259.241 70.6049 262.815 63.3276Z" fill="#9D602C"/>
<path d="M166.661 873.12C176.355 879.464 184.036 882.042 195.795 882.942C199.585 882.936 207.509 882.568 210.939 882.819C216.319 882.385 229.753 878.337 231.508 878.925C224.792 898.629 221.49 908.181 198.644 911.634C189.366 912.773 184.221 912.859 175.013 911.279C175.633 906.332 181.837 890.412 179.555 887.589C174.694 890.234 169.503 904.403 167.902 909.681C165.123 908.248 162.573 907.189 161.106 904.268C157.447 896.976 164.071 880.664 166.661 873.12Z" fill="#B5743D"/>
<path d="M210.939 882.819C216.319 882.384 229.753 878.337 231.508 878.925C224.792 898.629 221.49 908.181 198.644 911.634C203.853 902.107 206.923 893.602 210.338 883.352C207.022 883.407 198.466 883.774 195.795 882.942C199.585 882.935 207.509 882.568 210.939 882.819Z" fill="#9D602C"/>
<path d="M531.615 644.216C561.832 643.316 568.885 618.585 578.15 616.473C573.11 628.021 566.755 636.048 556.456 643.536C570.998 639.728 575.927 636.373 587.542 626.698C584.512 651.533 568.653 666.247 543.732 667.992C551.968 671.978 556.627 673.203 565.548 675.548C556.174 681.01 549.8 682.846 538.564 681.285C537.34 667.392 536.482 657.65 531.615 644.216Z" fill="#F7E0C7"/>
<path d="M200.429 104.573L200.755 105.148C196.262 111.086 195.472 112.968 192.753 119.867L192.294 119.275C192.209 116.458 193.622 110.874 194.265 107.903L200.429 104.573Z" fill="#B5743D"/>
<path d="M533.207 0C545.471 1.45973 547.149 12.6961 542.269 21.5856C535.858 33.2647 521.928 73.0859 513.111 80.1262C512.456 80.3962 512.039 80.5866 511.317 80.7667C509.272 81.2749 506.596 81.0471 504.869 79.7202C503.234 78.4607 502.316 76.8026 502.01 74.7765C500.95 67.7619 519.84 9.55807 524.193 4.05101C526.637 0.965603 529.478 0.475761 533.207 0Z" fill="#F6AF32"/>
<path d="M601.717 65.9631C606.897 65.4886 611.196 66.6207 613.859 71.4506C615.439 74.2549 615.764 77.5944 614.753 80.6498C612.457 87.5003 597.799 94.4132 591.516 98.0748C580.532 104.476 569.124 111.007 557.705 116.587C555.623 117.22 553.407 117.446 551.276 116.86C549.231 116.298 547.167 114.872 546.255 112.918C545.281 110.837 545.765 108.296 546.671 106.281C550.627 97.4723 591.835 69.8543 601.717 65.9631Z" fill="#F6AF32"/>
<path d="M237.017 888.495C237.895 885.948 238.601 883.346 240.066 881.123C242.339 882.299 242.503 882.501 244.977 882.525C244.581 884.791 244.212 886.977 243.708 889.218C242.193 890.522 242.334 890.497 240.36 890.718C238.277 890.057 238.345 890.204 237.017 888.495Z" fill="#978473" fill-opacity="0.27451"/>
</svg>
