<svg width="933" height="812" viewBox="0 0 933 812" fill="none" xmlns="http://www.w3.org/2000/svg">
<path d="M400.901 0.530342C408.692 -0.620179 429.408 0.243167 437.043 1.76229C446.326 3.72596 464.076 7.84554 469.189 17.0828C478.857 34.5512 459.576 32.3059 452.008 33.5752C407.313 41.0716 378.57 86.7863 365.724 126.787C362.448 136.984 360.181 147.873 357.875 158.345C364.57 159.745 368.562 161.015 375.003 163.123C375.857 146.854 382.549 123.599 402.464 121.342C413.007 120.147 415.884 138.156 424.307 144.094C433.565 150.618 441.121 148.339 451.555 151.479C474.118 157.866 487.619 166.57 504.176 182.474C525.484 136.938 560.208 95.1063 603.094 68.3278C644.412 42.5283 693.409 28.8127 741.812 40.5053C761.975 45.3755 784.52 56.3389 796.111 74.5782C798.291 78.1259 800.838 83.6954 799.644 87.8732C796.588 98.586 779.321 92.2438 771.484 90.6236C752.141 86.6234 731.966 91.9382 715.14 101.695C664.857 130.845 638.54 188.093 623.337 241.771C639.459 257.94 647.413 268.588 658.979 288.296C699.74 297.373 728.427 327.662 759.152 352.66C801.952 387.487 843.307 408.285 899.015 411.03C948.666 415.377 933.628 462.849 911.493 487.929C853.257 553.923 750.562 557.879 684.169 502.367C682.988 522.206 681.402 535.799 677.305 555.289C668.813 587.992 657.038 618.117 633.96 643.626C627.384 650.9 621.469 654.041 614.814 660.354C613.681 661.426 607.546 670.176 606.156 672.037C601.723 677.927 596.959 683.561 591.883 688.9C549.572 733.733 492.028 756.835 430.926 758.727C419.67 775.014 391.471 794.614 371.585 783.244C367.207 789.146 365.675 791.865 365.914 799.58C366.542 819.823 336.915 808.795 327.197 803.835C317.138 798.704 310.434 792.771 302.82 784.536C293.674 783.629 286.195 781.486 278.412 776.392C266.147 768.365 257.576 755.794 254.585 741.448C198.008 722.019 151.661 691.447 117.656 640.736C89.1132 598.175 73.2619 533.95 93.2873 484.972C100.466 467.411 113.246 457.259 118.483 440.378C122.2 428.389 123.056 411.134 124.375 398.171C125.543 385.721 127.44 373.35 130.056 361.122C95.4371 358.661 66.7635 348.863 40.8471 324.645C15.4138 300.399 1.31855 266.414 0.101896 231.197C-0.477956 214.414 0.540915 165.353 27.3201 166.469C39.009 166.956 51.4155 183.628 60.3514 191.598C66.7206 197.228 73.4891 202.389 80.6028 207.042C112.053 227.405 153.38 237.61 190.723 238.016C199.973 226.737 217.18 211.236 229.021 203.201C229.32 196.632 231.094 186.866 232.37 180.253C239.544 142.366 255.233 106.605 278.254 75.6711C309.132 34.4465 349.336 7.94045 400.901 0.530342Z" fill="#613508"/>
<path d="M389.395 178.077C384.736 161.775 385.72 141.232 402.502 132.144C408.843 147.412 419.078 156.54 433.522 164.688C438.764 163.652 435.372 163.56 438.856 160.808L440.668 161.196C463.831 164.711 483.223 178.13 499.192 194.584C497.527 199.125 494.183 207.673 495.91 212.344C497.698 212.761 512.424 209.641 516.728 209.43C547.846 207.911 581.976 222.386 599.414 248.715C600.933 251.101 601.839 252.609 603.682 254.776C606.009 258.118 606.505 259.105 608.195 262.764C610.27 264.586 609.474 264.392 611.868 264.799C615.505 263.399 617.269 258.537 618.928 254.977C627.819 263.949 638.369 276.644 644.327 287.845C628.07 289.728 613.626 295.958 606.97 311.992C624.378 301.037 636.942 296.008 658.355 300.953C696.703 309.808 726.835 344.044 757.566 367.322C783.767 387.172 807.671 402.815 839.138 413.387C849.43 416.859 859.999 419.467 870.72 421.194C884.987 423.429 909.032 421.029 917.298 431.279C914.518 432.963 902.995 436.287 897.49 438.988C880.695 435.834 845.512 450.236 828.355 455.612C758.656 477.453 681.824 461.98 638.106 399.842C634.022 394.199 629.931 387.618 626.129 381.719C627.641 393.533 631.064 403.575 634.579 414.789C643.782 444.174 652.293 464.888 671.311 489.429C671.391 498.608 671.642 508.441 670.772 517.534C666.602 561.032 651.925 606.661 621.708 638.985C622.859 630.07 622.32 625.447 619.026 617.04C616.161 626.347 613.277 636.095 608.739 644.722C576.783 705.518 501.225 745.311 434 746.475C433.755 743.077 433.529 737.768 431.581 735.012L430.865 734.914C428.642 738.57 427.791 742.244 425.746 745.636C415.221 763.074 401.485 772.718 381.478 775.504C388.17 764.103 390.337 754.037 385.006 741.429C382.386 748.299 380.17 754.478 375.979 760.625C367.069 773.692 351.568 781.701 355.214 800.131C321.603 795.943 302.131 772.357 294.569 740.805C289.764 752.132 290.555 760.092 294.289 771.585C281.476 766.222 274.123 759.217 268.261 746.377C265.779 740.94 265.002 731.498 263.544 729.153C259.13 731.412 251.154 727.359 246.495 725.675C167.401 697.019 97.8264 624.063 96.7677 536.307C95.6557 527.16 97.6684 513.279 99.7318 504.4C102.518 494.499 105.194 486.747 110.791 477.961C117.647 467.209 126.105 458.141 129.781 445.576C134.69 428.799 135.274 409.958 137.341 392.514C142.573 348.362 156.369 307.604 181.282 270.627C191.099 256.114 202.486 242.729 215.237 230.712C220.037 226.148 224.753 222.014 230.173 218.198C232.07 216.862 238.584 212.883 239.489 211.374C238.575 210.523 238.453 210.375 237.714 209.365C239.234 206.628 247.125 203.268 250.014 201.693C263.907 194.118 276.862 188.46 292.313 184.858C297.062 187.848 302.555 189.931 307.772 191.977C286.09 204.636 271.033 230.975 281.989 255.976C283.567 259.575 286.993 265.912 290.73 267.313C291.332 267.245 291.934 267.177 292.536 267.109C297.979 261.715 299.651 257.309 305.883 252.142C316.554 243.294 322.174 241.868 333.977 236.133L334.221 235.376C331.86 233.837 327.785 234.387 325.007 234.54C310.145 235.358 298.979 244.365 290.588 255.815C287.164 245.867 285.945 239.004 289.029 228.695C295.337 207.605 311.092 198.55 330.301 191.247C327.378 189.515 325.726 189.117 322.543 188.134C312.518 184.917 306.942 183.56 298.844 176.809C314.602 166.904 339.673 165.356 357.426 169.868C364.067 171.556 377.464 175.456 381.89 181.01C384.274 180.439 387.81 179.805 389.395 178.077Z" fill="#FEF9F1"/>
<path d="M100.986 500.047C114.223 480.968 136.311 474.795 156.48 488.67C174.411 501.002 178 524.502 165.021 541.72C158.735 549.968 149.42 555.368 139.138 556.734C128.471 558.252 117.643 555.381 109.133 548.774C105.232 545.792 98.4861 540.547 96.986 536.047C96.986 536.047 95.413 530.845 96.9859 519.047C98.5589 507.25 100.986 500.047 100.986 500.047Z" fill="#F7D6B5"/>
<path d="M128.271 501.02C130.535 502.404 129.768 501.486 130.817 503.739C130.332 510.015 120.118 518.985 115.473 523.504C114.712 523.339 114.141 523.014 113.408 522.684C109.326 516.383 123.322 504.345 128.271 501.02Z" fill="#F0A56D"/>
<path d="M144.998 509.482C147.173 509.617 147.526 510.039 148.121 511.901C146.975 517.901 136.948 526.909 132.162 530.393C131.881 530.429 130.688 530.246 130.355 530.203C126.233 525.188 141.338 512.666 144.998 509.482Z" fill="#F0A56D"/>
<path d="M565.474 242.075C575.785 242.934 582.539 244.224 592.336 247.334C594.063 247.882 597.945 249.252 599.414 248.715C600.933 251.101 601.839 252.609 603.682 254.776C599.812 254.564 597.632 254.473 593.732 254.713C585.172 251.314 574.236 245.92 565.474 242.075Z" fill="#CD894D"/>
<path d="M433.522 164.688C438.764 163.652 435.372 163.56 438.856 160.808L440.668 161.196C442.45 164.295 444.587 165.891 446.901 168.626C451.8 174.424 454.249 179.603 456.98 186.53C452.492 182.14 435.28 167.882 433.522 164.688Z" fill="#F7D6B5"/>
<path d="M322.543 188.134C333.063 184.332 342.009 185.509 352.334 189.122C347.445 189.349 334.512 189.813 330.301 191.247C327.378 189.515 325.726 189.117 322.543 188.134Z" fill="#F7D6B5"/>
<path d="M389.395 178.077L391.911 184.18C391.083 185.542 390.175 187.134 389.285 188.429C386.066 185.633 384.482 184.398 381.89 181.01C384.273 180.439 387.81 179.805 389.395 178.077Z" fill="#8F5520"/>
<path d="M593.732 254.713C597.632 254.473 599.812 254.564 603.682 254.776C606.009 258.118 606.505 259.105 608.195 262.764C603.645 260.694 598.183 257.289 593.732 254.713Z" fill="#F0C7A1"/>
<path d="M391.911 184.18C393.908 188.256 395.518 191.343 397.824 195.241C394.933 193.028 392.085 190.757 389.285 188.429C390.175 187.134 391.083 185.542 391.911 184.18Z" fill="#B67235"/>
<path d="M485.819 546.955C489.885 546.937 498.665 543.263 503.111 542.112C515.032 539.026 525.601 540.716 536.892 545.241C552.695 551.578 562.902 565.967 561.5 583.296C559.645 606.306 537.277 622.41 515.296 623.12C492.053 624.247 464.578 610.745 462.919 585.028C462.576 579.095 464.236 572.727 466.917 567.431C468.822 563.543 473.096 557.971 476.084 554.523C476.01 554.211 475.937 553.893 475.863 553.574C479.506 551.486 482.403 549.386 485.819 546.955Z" fill="#F7D6B5"/>
<path d="M523.231 567.143L524.725 567.278C526.409 568.582 525.821 567.737 526.299 570.045C524.927 575.85 514.145 589.137 509.362 592.131C498.586 588.757 519.974 569.8 523.231 567.143Z" fill="#F0A56D"/>
<path d="M502.927 561.565C511.316 564.706 492.102 583.437 488.593 586.027L486.805 585.231C482.378 578.667 497.961 565.202 502.927 561.565Z" fill="#F0A56D"/>
<path d="M540.082 575.005C542.323 575.648 542.366 575.997 542.966 577.981C542.102 583.357 535.569 589.376 531.748 593.154C529.348 592.835 530.267 593.368 528.754 591.794C528.105 586.571 536.126 578.085 540.082 575.005Z" fill="#F0A56D"/>
<path d="M475.863 553.574C447.434 563.635 427.522 540.275 425.85 513.934C424.803 497.861 429.542 480.839 440.117 468.513C452.167 454.222 474.522 450.83 488.385 464.888C510.55 487.354 506.423 525.212 485.819 546.955C482.403 549.386 479.506 551.486 475.863 553.574Z" fill="#2F1901"/>
<path d="M451.028 473.069C467.518 472.046 465.601 490.268 453.183 497.561C438.862 500.751 437.404 481.084 451.028 473.069Z" fill="#FEF9F1"/>
<path d="M226.055 555.142C239.246 554.236 244.576 564.804 257.155 566.959C270.416 569.041 284.071 562.661 297.173 566.763C303.059 568.606 307.135 575.96 303.881 581.275C295.169 595.511 271.891 604.132 256.929 609.753C256.501 620.414 254.924 640.001 264.076 647.435C293.137 671.057 335.721 649.694 357.48 627.963C354.814 625.557 351.638 623.267 353.176 619.446C368.673 606.484 384.391 642.212 369.559 641.116L364.631 636.468C344.356 653.686 325.168 667.304 297.248 668.651C279.768 669.49 266.415 664.408 253.643 652.529C244.65 656.687 245.027 655.137 236.407 656.533C225.767 658.254 198.177 638.262 208.513 629.108C215.265 628.961 229.463 656.178 247.415 642.683L248.009 642.23C245.335 629.825 244.979 621.13 246.435 608.333C233.574 598.934 202.567 569.433 226.055 555.142Z" fill="#613508"/>
<path d="M227.639 565.49C229.445 564.645 231.063 563.922 233 564.951C250.26 574.123 256.274 576.132 276.013 574.227C277.99 573.94 279.97 573.682 281.954 573.444C286.192 572.942 291.654 572.47 295.188 575.256C296.012 577.864 293.448 581.226 291.808 581.704C278.347 585.579 265.761 596.307 252.524 599.362C243.822 596.938 225.841 575.391 227.639 565.49Z" fill="#7D4817"/>
<path d="M227.639 565.49C229.445 564.645 231.063 563.922 233 564.951C250.26 574.123 256.274 576.132 276.013 574.227C278.674 575.17 278.813 574.007 280.852 575.207L278.898 575.495C280.109 576.107 279.579 575.709 280.497 576.67C272.288 582.671 240.87 581.146 233.313 572.703C230.177 569.2 230.069 569.213 227.639 565.49Z" fill="#8F5520"/>
<path d="M194.707 420.514C237.207 416.926 241.229 505.27 197.887 514.534C153.927 516.726 153.763 431.72 194.707 420.514Z" fill="#2F1901"/>
<path d="M188.328 436.906C202.24 436.269 200.884 452.973 189.264 459.524C173.995 460.045 177.916 443.353 188.328 436.906Z" fill="#FEF9F1"/>
<path d="M475.882 356.877C481.154 356.272 486.493 356.577 491.661 357.778C502.896 360.575 512.583 367.652 518.669 377.498C521.719 382.522 526.489 394.294 519.312 397.772C514.291 397.734 510.305 392.861 506.221 389.262C497.061 381.755 483.119 376.257 471.216 377.814C465.968 378.501 459.9 379.601 454.806 378.586C452.455 378.118 452.179 377.499 451.108 375.754C449.889 364.572 466.966 358.391 475.882 356.877Z" fill="#613508"/>
<path d="M197.927 327.418C203.658 326.858 209.22 327.827 214.208 330.895C219.382 334.077 228.581 344.317 224.3 350.761C218.836 354.678 210.747 348.777 204.697 347.792C202.027 347.357 199.94 347.457 197.271 347.521C190.441 348.713 186.44 350.957 180.437 354.011C177.066 355.727 173.618 357.141 171.047 353.481C170.639 350.165 172.283 347.121 173.911 344.325C179.348 334.988 187.54 329.503 197.927 327.418Z" fill="#613508"/>
<path d="M549.07 231.361C552.646 231.116 567.097 230.357 568.211 234.581L565.743 235.459C561.5 235.527 548.305 234.724 544.956 232.533C546.088 231.357 546.995 231.649 549.07 231.361Z" fill="#F7D6B5"/>
<path d="M592.348 91.7142C595.912 88.7843 601.086 84.9782 605.023 82.6294C609.474 82.5382 613.546 82.4445 617.991 82.6643C619.706 82.7488 622.669 83.4542 623.41 83.4517C632.491 85.3119 639.153 87.7697 647.48 92.0099C664.398 104.575 661.937 105.452 671.507 120.917L665.561 127.359C658.042 136.466 649.752 148.599 643.537 158.741L639.575 166.11C632.852 178.852 626.913 190.465 622.333 204.163C620.998 207.249 618.965 211.34 618.463 214.54C615.426 221.477 610.944 237.917 608.654 245.681C588.135 210.112 549.83 197.564 510.82 199.471C514.659 190.339 518.976 181.411 523.733 172.723C525.289 169.596 526.654 166.458 528.779 163.707C534.338 153.85 544.19 140.039 551.452 131.733C554.22 128.148 556.02 125.84 559.167 122.612C569.13 111.194 580.249 100.839 592.348 91.7142Z" fill="#B67235"/>
<path d="M528.779 163.706C531.43 164.82 542.084 162.547 546.921 162.829C562.921 163.763 572.234 166.254 586.819 172.222C592.826 175.723 599.004 179.244 604.472 183.538L607.362 186.473C613.681 192.522 617.838 196.664 622.333 204.163C620.998 207.249 618.965 211.34 618.463 214.54C615.426 221.477 610.944 237.917 608.654 245.681C588.135 210.112 549.83 197.564 510.82 199.471C514.659 190.339 518.976 181.411 523.733 172.723C525.289 169.596 526.654 166.458 528.779 163.706Z" fill="#B67235"/>
<path d="M528.779 163.706C531.43 164.82 542.084 162.547 546.921 162.829C562.921 163.763 572.234 166.254 586.819 172.222C592.826 175.723 599.004 179.244 604.472 183.538L607.362 186.473C604.943 188.194 602.512 189.892 600.069 191.567C590.56 183.966 584.296 179.945 572.687 176.241C563.711 172.745 554.22 170.758 544.601 170.363C535.759 170.56 532.324 170.509 523.733 172.723C525.289 169.596 526.654 166.458 528.779 163.706Z" fill="#8F5520"/>
<path d="M607.362 186.473C613.681 192.522 617.838 196.664 622.333 204.163C620.998 207.249 618.965 211.34 618.463 214.54C612.572 204.678 608.372 199.393 600.069 191.567C602.512 189.892 604.943 188.194 607.362 186.473Z" fill="#7D4817"/>
<path d="M544.601 170.363C554.22 170.758 563.711 172.745 572.687 176.241C566.252 180.951 559.792 176.498 553.246 180.076C550.075 181.809 544.215 187.268 541.208 189.814C544.049 180.917 544.49 179.683 544.601 170.363Z" fill="#CD894D"/>
<path d="M559.167 122.612C566.852 122.829 574.34 121.153 581.816 121.989C586.721 122.512 590.878 123.028 595.74 123.856C593.799 125.755 590.915 128.071 590.26 130.577L596.653 132.451C607.209 134.713 619.932 143.39 627.617 150.891C632.632 156.198 635.613 159.915 639.575 166.11C632.852 178.852 626.913 190.465 622.333 204.163C617.838 196.664 613.681 192.522 607.362 186.473L604.472 183.538C599.004 179.244 592.826 175.723 586.819 172.222C572.234 166.254 562.921 163.763 546.921 162.829C542.084 162.547 531.43 164.82 528.779 163.706C534.338 153.85 544.19 140.039 551.452 131.733C554.22 128.148 556.02 125.84 559.167 122.612Z" fill="#B67235"/>
<path d="M559.167 122.612C566.852 122.829 574.34 121.153 581.816 121.989C586.721 122.512 590.878 123.028 595.74 123.856C593.799 125.755 590.915 128.071 590.26 130.577L596.653 132.451C594.234 137.349 590.664 135.927 585.558 135.684C579.024 140.494 570.464 151.596 566.448 158.621C572.883 161.436 583.219 165.159 587.052 170.804L586.819 172.222C572.234 166.254 562.921 163.763 546.921 162.829C542.084 162.547 531.43 164.82 528.779 163.706C534.338 153.85 544.19 140.039 551.452 131.733C554.22 128.148 556.02 125.84 559.167 122.612Z" fill="#CD894D"/>
<path d="M559.167 122.612C566.852 122.829 574.34 121.153 581.817 121.989C586.721 122.512 590.879 123.028 595.74 123.856C593.799 125.755 590.915 128.071 590.26 130.577C574.732 128.009 566.619 128.85 551.452 131.733C554.22 128.148 556.02 125.84 559.167 122.612Z" fill="#A3642C"/>
<path d="M627.617 150.891C632.632 156.198 635.613 159.915 639.575 166.11C632.852 178.852 626.913 190.465 622.333 204.163C617.838 196.664 613.681 192.522 607.362 186.473L604.472 183.538C610.87 171.78 618.64 160.822 627.617 150.891Z" fill="#A3642C"/>
<path d="M592.348 91.7142C595.912 88.7843 601.086 84.9782 605.023 82.6294C609.474 82.5382 613.546 82.4445 617.991 82.6643C619.706 82.7488 622.669 83.4542 623.41 83.4517C632.491 85.3119 639.153 87.7697 647.48 92.0099C664.398 104.575 661.937 105.452 671.507 120.917L665.561 127.359C650.578 94.1481 626.307 88.1089 592.348 91.7142Z" fill="#8F5520"/>
<path d="M595.74 123.856C602.078 125.811 608.36 127.69 614.36 130.573C628.578 140.259 633.672 144.676 643.537 158.741L639.575 166.11C635.613 159.915 632.631 156.198 627.617 150.891C619.932 143.39 607.209 134.713 596.653 132.451L590.26 130.577C590.915 128.071 593.799 125.755 595.74 123.856Z" fill="#8F5520"/>
<path d="M581.816 121.989C583.359 116.767 607.87 98.9289 614.299 101.911C615.646 105.599 603.59 115.829 600.455 119.421C605.311 121.786 610.809 123.849 613.993 128.118C614.183 129.08 614.342 129.597 614.36 130.573C608.36 127.69 602.078 125.811 595.74 123.856C590.879 123.028 586.721 122.512 581.816 121.989Z" fill="#CD894D"/>
<path d="M366.093 22.4864C370.501 23.6804 375.579 24.9319 379.845 26.3776C389.907 29.5187 396.287 36.3661 401.58 45.0933C392.167 54.1309 385.399 61.4786 378.008 72.5227L373.849 79.1258C367.786 88.9913 362.579 99.3582 358.284 110.113C357.228 113.362 356.094 116.585 354.883 119.779C351.201 130.663 348.606 142.095 346.443 153.382C345.703 158.172 341.914 156.772 337.683 156.473C320.955 156.348 298.563 161.135 287.523 174.792C265.477 180.281 261.536 183.86 242.939 193.273C245.181 179.242 246.975 170.826 251.072 157.182C252.115 153.687 252.932 150.639 254.413 147.288C258.669 134.622 265.23 119.962 272.168 108.688C274.088 104.247 276.416 100.891 279.128 96.9334C284.631 88.0832 298.954 67.8471 306.88 62.6113C309.648 58.6295 314.406 54.734 318.143 51.7093C331.132 39.7852 349.605 28.6413 366.093 22.4864Z" fill="#B67235"/>
<path d="M366.093 22.4864C370.501 23.6804 375.579 24.9319 379.845 26.3776C389.907 29.5187 396.287 36.3661 401.58 45.0933C392.167 54.1309 385.4 61.4786 378.008 72.5227L373.849 79.1258C367.786 88.9913 362.579 99.3582 358.284 110.113C357.328 109.672 351.382 104.792 350.164 103.827C343.641 98.6559 339.57 96.6487 331.947 93.485C322.461 90.3328 311.674 90.5294 301.842 91.1986C301.608 91.2555 301.374 91.3125 301.141 91.3694C294.186 91.5727 285.554 96.1417 279.128 96.9334C284.631 88.0832 298.954 67.8471 306.88 62.6113C309.648 58.6295 314.406 54.734 318.143 51.7093C331.132 39.7852 349.605 28.6413 366.093 22.4864Z" fill="#A3642C"/>
<path d="M366.093 22.4864C370.501 23.6804 375.579 24.9319 379.845 26.3776C389.907 29.5187 396.287 36.3661 401.58 45.0933C392.167 54.1309 385.4 61.4786 378.008 72.5227L373.849 79.1258C364.255 64.7666 352.712 58.9877 335.657 58.4305C332.32 58.0827 329.95 58.2817 326.626 58.4379C319.989 58.8457 313.172 60.5019 306.88 62.6113C309.648 58.6295 314.406 54.734 318.143 51.7093C331.132 39.7852 349.605 28.6413 366.093 22.4864Z" fill="#A3642C"/>
<path d="M335.028 50.4528C342.675 50.6016 350.056 51.8366 357.21 54.6545C366.696 59.3227 372.014 63.5378 378.008 72.5227L373.849 79.1258C364.255 64.7667 352.712 58.9877 335.657 58.4305C332.32 58.0827 329.95 58.2817 326.626 58.4379C319.989 58.8457 313.172 60.502 306.88 62.6114C309.648 58.6295 314.406 54.7341 318.143 51.7093C322.347 51.6658 330.074 50.6586 335.028 50.4528Z" fill="#8F5520"/>
<path d="M366.093 22.4864C370.501 23.6804 375.579 24.9319 379.845 26.3776L379.215 26.8472L379.828 26.8833C374.104 29.2542 360.034 31.1903 356.955 35.815C357.923 36.5033 357.449 36.3404 358.294 36.4984C351.867 38.0732 338.937 44.56 334.666 49.3482L335.028 50.4528C330.073 50.6585 322.347 51.6658 318.143 51.7093C331.132 39.7852 349.605 28.6413 366.093 22.4864Z" fill="#B67235"/>
<path d="M358.294 36.4984L360.314 36.581L360.491 37.4358C357.631 40.9118 354.337 42.7677 351.155 45.776C355.453 46.7251 364.745 49.0304 357.21 54.6544C350.056 51.8366 342.675 50.6016 335.028 50.4528L334.666 49.3482C338.937 44.56 351.867 38.0732 358.294 36.4984Z" fill="#CD894D"/>
<path d="M306.88 62.6113C313.172 60.5019 319.989 58.8456 326.626 58.4378C321.495 63.6828 301.89 83.5141 300.48 90.5765C300.86 90.7675 301.465 91.119 301.842 91.1986C301.608 91.2555 301.374 91.3124 301.141 91.3694C294.186 91.5727 285.554 96.1417 279.128 96.9334C284.631 88.0831 298.954 67.8471 306.88 62.6113Z" fill="#B67235"/>
<path d="M326.626 58.4379C329.95 58.2817 332.32 58.0827 335.657 58.4305C336.05 59.7311 336.862 61.2875 336.187 62.0768C330.862 68.3101 316.39 73.7259 318.675 84.9207C321.417 88.1169 331.197 88.9515 331.947 93.485C322.461 90.3328 311.674 90.5294 301.842 91.1986C301.465 91.119 300.86 90.7676 300.48 90.5765C301.89 83.5142 321.495 63.6829 326.626 58.4379Z" fill="#CD894D"/>
<path d="M280.21 137.378C293.671 134.081 306.407 133.643 319.937 137.118C330.36 141.757 338.433 143.886 346.443 153.382C345.703 158.172 341.914 156.772 337.683 156.473C320.955 156.348 298.563 161.135 287.523 174.792C265.477 180.281 261.536 183.86 242.939 193.273C245.181 179.242 246.975 170.826 251.072 157.182C252.115 153.687 252.932 150.639 254.413 147.288C260.644 145.081 270.878 138.643 276.586 138.319L277.971 137.715L280.21 137.378Z" fill="#B67235"/>
<path d="M280.21 137.378C293.671 134.081 306.407 133.643 319.937 137.118C330.36 141.757 338.433 143.886 346.443 153.382C345.703 158.172 341.914 156.772 337.683 156.473C329.162 145.746 303.882 142.761 291.187 143.128C288.394 143.012 288.116 143.052 285.53 142.145C286.147 141.114 286.014 141.696 285.782 140.371C283.734 139.075 282.409 138.436 280.21 137.378Z" fill="#8F5520"/>
<path d="M277.971 137.715L280.211 137.378C282.409 138.436 283.734 139.075 285.782 140.371C286.014 141.696 286.147 141.114 285.53 142.145C288.116 143.052 288.395 143.012 291.187 143.128L291.081 143.542C282.212 144.581 278.09 145.569 269.52 148.116C263.367 150.046 256.968 154.846 251.072 157.182C252.115 153.687 252.932 150.639 254.413 147.288C260.644 145.081 270.878 138.643 276.586 138.318L277.971 137.715Z" fill="#A3642C"/>
<path d="M277.971 137.715L280.211 137.378C282.409 138.436 283.734 139.075 285.782 140.371C286.014 141.696 286.147 141.114 285.53 142.145C282.559 140.845 279.577 139.57 276.586 138.318L277.971 137.715Z" fill="#7D4817"/>
<path d="M291.081 143.542L292.798 144.025C290.561 146.63 279.958 145.152 284.476 154.79C282.748 159.055 278.81 164.02 275.645 167.378C275.78 163.974 275.814 161.067 276.385 157.691C274.225 152.695 274.114 150.276 269.52 148.116C278.09 145.569 282.212 144.581 291.081 143.542Z" fill="#CD894D"/>
<path d="M301.842 91.1986C311.674 90.5294 322.461 90.3328 331.947 93.485C339.57 96.6487 343.641 98.6559 350.164 103.827C351.382 104.792 357.328 109.672 358.284 110.113C357.228 113.362 356.094 116.585 354.883 119.779C352.821 117.519 350.651 115.358 348.381 113.304C336.83 102.772 323.819 97.9682 308.191 98.6448C302.787 99.0288 297.871 99.5149 292.565 100.718C284.78 103.196 279.587 105.005 272.168 108.688C274.088 104.247 276.416 100.891 279.128 96.9334C285.554 96.1417 294.186 91.5727 301.141 91.3694C301.374 91.3125 301.608 91.2555 301.842 91.1986Z" fill="#8F5520"/>
<path d="M272.168 108.688C279.587 105.005 284.78 103.196 292.565 100.717C291.832 107.785 277.391 128.981 277.231 137.101L277.971 137.715L276.586 138.318C270.878 138.643 260.644 145.081 254.413 147.288C258.669 134.622 265.23 119.962 272.168 108.688Z" fill="#B67235"/>
<path d="M292.565 100.717C297.871 99.5149 302.787 99.0288 308.191 98.6448C302.556 107.37 296.783 118.926 296.025 129.473C303.487 129.668 315.689 129.629 319.937 137.118C306.407 133.643 293.671 134.081 280.21 137.378L277.971 137.715L277.231 137.101C277.391 128.981 291.832 107.785 292.565 100.717Z" fill="#CD894D"/>
<path d="M917.298 431.279C920.605 436.012 920.733 440.849 919.656 446.452C915.29 469.229 895.01 490.097 876.617 502.643C842.377 525.519 800.409 533.748 760.064 525.494C724.3 518.532 692.576 499.992 671.978 469.505C671.139 468.262 670.331 466.995 669.553 465.715C662.469 455.495 657.375 444.162 652.538 432.773C656.285 436.398 660.222 439.82 664.324 443.035C712.09 480.459 775.972 483.955 831.802 465.568C859.411 456.475 874.951 447.811 904.532 444.223C902.284 441.076 901.06 440.463 897.49 438.988C902.995 436.287 914.518 432.963 917.298 431.279Z" fill="#F0A56D"/>
<path d="M917.298 431.279C920.605 436.012 920.733 440.849 919.655 446.452C915.29 469.229 895.01 490.097 876.617 502.643C842.376 525.519 800.409 533.748 760.064 525.494C724.3 518.532 692.576 499.992 671.978 469.505C671.139 468.262 670.331 466.995 669.553 465.715C671.268 462.586 671.495 461.478 672.419 458.098C706.126 497.542 748.78 512.966 799.772 509.531C791.298 506.213 782.732 503.659 774.294 499.998C776.15 500.371 778.011 500.726 779.872 501.069C820.64 508.478 838.182 499.918 872.594 477.459C882.176 471.207 902.486 455.691 904.532 444.223C902.284 441.076 901.06 440.463 897.49 438.988C902.995 436.287 914.518 432.963 917.298 431.279Z" fill="#F7D6B5"/>
<path d="M19.5573 183.581C23.1166 178.09 26.4549 177.102 31.7967 181.551C37.0184 185.899 41.6389 190.983 46.4742 195.766C51.5729 200.745 56.9397 205.444 62.5497 209.84C96.2234 236.533 138.963 246.881 180.91 250.056C164.513 271.12 155.174 288.368 144.644 312.692C110.387 310.351 78.4996 294.374 56.1156 268.336C47.4545 258.274 41.964 250.115 35.4913 238.588C33.6838 240.549 31.335 242.701 30.61 245.229L30.1716 245.25C29.6444 242.994 26.6233 235.748 25.6534 233.075C23.5128 227.177 22.5992 223.479 21.2363 217.412C19.5236 209.787 18.8556 204.795 18.6162 196.997C18.4656 194.973 17.4749 192.918 16.7028 190.994C17.4192 188.602 18.6003 185.925 19.5573 183.581Z" fill="#FEF9F1"/>
<path d="M21.2362 217.412C23.0284 215.123 23.1778 215.011 25.8646 213.923C28.6653 223.489 31.4048 229.521 35.4913 238.588C33.6838 240.549 31.3349 242.701 30.61 245.229L30.1716 245.25C29.6444 242.994 26.6233 235.748 25.6534 233.075C23.5127 227.177 22.5992 223.479 21.2362 217.412Z" fill="#F7D6B5"/>
<path d="M18.6162 196.997L22.2392 195.601C23.3616 201.725 24.5703 207.833 25.8647 213.923C23.1779 215.011 23.0285 215.123 21.2363 217.412C19.5236 209.787 18.8556 204.795 18.6162 196.997Z" fill="#F7D6B5"/>
<path d="M16.7028 190.994C17.4192 188.602 18.6003 185.925 19.5573 183.581C20.5039 187.436 21.6692 191.709 22.2392 195.601L18.6162 196.997C18.4656 194.973 17.4749 192.918 16.7028 190.994Z" fill="#F7D6B5"/>
<path d="M673.521 52.4715C688.186 48.1003 711.441 48.2185 726.394 50.2997C730.545 50.7308 732.198 50.9763 736.246 52.0184C741.297 60.4939 745.651 67.9292 744.285 78.2698L737.936 79.713C727.539 81.9987 717.558 85.855 708.331 91.1477C706.298 92.4213 703.8 94.137 701.675 95.0806C692.325 101.445 678.946 112.144 671.507 120.917C661.937 105.452 664.398 104.575 647.48 92.0099C639.153 87.7697 632.491 85.3119 623.41 83.4517C622.669 83.4541 619.706 82.7488 617.991 82.6643C613.546 82.4445 609.474 82.5381 605.023 82.6294C617.514 72.3059 641.694 62.4398 656.609 56.9548C662.249 55.7559 667.417 53.0759 673.521 52.4715Z" fill="#B67235"/>
<path d="M673.521 52.4715C688.186 48.1003 711.441 48.2185 726.394 50.2997C730.545 50.7308 732.198 50.9763 736.246 52.0184C741.297 60.4939 745.651 67.9292 744.285 78.2698L737.936 79.713C727.539 81.9987 717.558 85.855 708.331 91.1477C706.298 92.4213 703.8 94.137 701.675 95.0806C699.44 79.675 689.943 70.2363 676.785 63.3062C668.874 59.3391 665.255 58.7299 656.609 56.9548C662.249 55.7559 667.417 53.0759 673.521 52.4715Z" fill="#A3642C"/>
<path d="M656.609 56.9548C662.249 55.756 667.417 53.0759 673.521 52.4716C675.897 53.9117 679.73 55.3622 681.022 56.2085C687.451 59.8743 693.042 63.1948 698.02 68.8256C703.855 76.1555 706.457 81.8371 708.331 91.1478C706.298 92.4214 703.8 94.137 701.675 95.0806C699.44 79.675 689.943 70.2363 676.785 63.3063C668.874 59.3392 665.255 58.7299 656.609 56.9548Z" fill="#8F5520"/>
<path d="M726.394 50.2997C730.545 50.7308 732.198 50.9763 736.246 52.0185C741.297 60.494 745.651 67.9292 744.285 78.2698L737.936 79.713C738.358 66.1719 734.152 60.4205 726.394 50.2997Z" fill="#8F5520"/>
<path d="M681.022 56.2084C687.641 55.9776 699.226 58.3582 698.62 66.9121C698.552 67.8502 698.51 68.0277 698.02 68.8256C693.042 63.1948 687.451 59.8743 681.022 56.2084Z" fill="#CD894D"/>
<path d="M656.609 56.9548C665.255 58.7299 668.874 59.3391 676.785 63.3063C675.236 64.2498 675.364 64.2553 673.564 64.2633L672.505 64.9944C665.763 71.2479 653.321 73.6212 643.99 82.1732C646.359 83.8258 649.556 85.6964 651.08 87.9901C651.356 90.9598 650.137 90.9133 647.48 92.0099C639.153 87.7697 632.491 85.3119 623.41 83.4517C622.669 83.4541 619.706 82.7488 617.991 82.6643C613.546 82.4445 609.474 82.5381 605.023 82.6294C617.514 72.3059 641.694 62.4399 656.609 56.9548Z" fill="#B67235"/>
<path d="M623.41 83.4517L622.614 82.7372L623.661 81.7771C643.157 78.0243 651.203 66.9459 672.505 64.9944C665.763 71.2479 653.321 73.6212 643.99 82.1733C646.359 83.8259 649.556 85.6965 651.08 87.9902C651.356 90.9598 650.137 90.9133 647.48 92.0099C639.153 87.7697 632.491 85.3119 623.41 83.4517Z" fill="#CD894D"/>
<path d="M16.7028 190.994C17.4749 192.918 18.4656 194.973 18.6162 196.997C18.8556 204.795 19.5236 209.787 21.2363 217.412C22.5992 223.479 23.5128 227.177 25.6534 233.075C26.6233 235.748 29.6444 242.994 30.1716 245.25L30.61 245.229C46.176 278.722 74.5104 304.585 109.281 317.038C119.545 320.694 129.672 323.147 140.555 323.904C138.423 330.136 136.473 335.778 134.75 342.148L132.662 348.764C48.6124 347.488 -4.19704 270.647 16.7028 190.994Z" fill="#F7D6B5"/>
<path d="M134.75 342.148C87.2911 339.931 36.5536 301.993 29.2488 253.967C28.7749 250.852 28.2569 247.879 30.1716 245.25L30.61 245.229C46.176 278.722 74.5104 304.585 109.281 317.038C119.545 320.694 129.672 323.147 140.555 323.904C138.423 330.136 136.473 335.778 134.75 342.148Z" fill="#F0A56D"/>
<path d="M380.237 17.5934C406.798 10.0137 432.231 8.85586 457.304 21.6291C438.28 22.4502 422.251 28.3712 407.372 40.4685C405.465 42.0391 403.534 43.5809 401.58 45.0933C396.287 36.3661 389.907 29.5187 379.845 26.3776C375.579 24.9319 370.501 23.6804 366.093 22.4864C369.704 20.4823 376.203 18.5995 380.237 17.5934Z" fill="#A3642C"/>
<path d="M366.093 22.4864C369.704 20.4823 376.203 18.5995 380.237 17.5934L380.768 17.9229C392.943 25.3226 400.535 24.5817 407.372 40.4685C405.465 42.0391 403.534 43.5809 401.58 45.0933C396.287 36.3661 389.907 29.5187 379.845 26.3776C375.579 24.9319 370.501 23.6804 366.093 22.4864Z" fill="#7D4817"/>
<path d="M736.246 52.0184C758.766 57.2953 773.003 64.2621 787.557 82.4861C771.294 77.4113 761.069 76.6429 744.285 78.2698C745.651 67.9292 741.297 60.494 736.246 52.0184Z" fill="#A3642C"/>
</svg>
