<svg width="2172" height="724" viewBox="0 0 2172 724" fill="none" xmlns="http://www.w3.org/2000/svg">
<g clip-path="url(#clip0_4_17)">
<path d="M0 0H2172V396.074V522.422V588.658V724H1583.72H1249.94H1033.69H806.749H256.91H0V674.556V578.05V0Z" fill="#FCF3E5"/>
<path d="M440.797 453.118C488.929 429.282 523.705 409.262 574.958 391.409C642.165 367.999 696.701 380.91 763.059 403.769C844.042 431.667 924.561 468.286 1004.51 500.272C1059.82 521.524 1124.56 547.507 1182.3 561.243L1182.13 561.794L1210.13 569.481L1217.56 571.042C1220.86 573.662 1236.11 576.638 1241.15 577.811C1259.77 582.992 1278.79 587.216 1297.38 592.593C1349.69 607.817 1401.32 625.269 1452.14 644.899C1416.12 656.043 1384.67 666.395 1349.61 680.328C1341.98 683.361 1311.71 696.706 1307.21 697.836C1293.41 703.812 1262.18 716.66 1249.94 724H1033.69H806.749H256.91H0V674.556V578.05C57.1253 563.394 114.498 549.719 172.092 537.031C252.011 519.28 340.486 502.539 414.33 465.719C417.916 465.023 436.81 455.164 440.797 453.118Z" fill="#BEC294"/>
<path d="M778.894 553.928C859.694 550.133 940.843 545.417 1021.47 554.445C1030.56 555.463 1040.29 557.837 1049.33 557.018C1075.01 562.53 1087.69 562.416 1111.7 565.021C1119.5 563.273 1159.34 565.507 1170.25 564.664C1177.01 564.142 1175.35 561.998 1182.13 561.794L1210.13 569.481L1217.56 571.042C1220.86 573.662 1236.11 576.638 1241.15 577.811C1259.77 582.992 1278.79 587.216 1297.38 592.593C1349.69 607.817 1401.32 625.269 1452.14 644.899C1416.12 656.043 1384.67 666.395 1349.61 680.328C1341.98 683.361 1311.71 696.706 1307.21 697.836C1293.41 703.812 1262.18 716.66 1249.94 724H1033.69H806.749H256.91C263.136 719.253 290.881 704.567 299.447 699.738C358.272 666.578 418.953 636.907 482.155 613.017C502.798 605.213 528.744 595.091 550.158 589.962L552.962 588.78L567.87 584.774C580.52 575.633 578.773 569.705 574.675 556.072C578.104 554.849 581.892 554.374 585.499 553.785C590.255 565.113 604.338 573.446 616.295 572.325L616.131 572.931L620.156 572.256C625.8 570.432 642.217 567.904 648.817 566.736C656.622 565.771 664.541 564.287 672.302 562.937L674.688 563.269C680.592 562.395 688.152 561.03 693.979 561.126C702.463 560.63 710.951 560.219 719.443 559.895C721.849 559.466 724.245 558.983 726.629 558.445C743.666 557.648 761.377 554.738 778.894 553.928Z" fill="#B4B779"/>
<path d="M778.894 553.928C859.694 550.133 940.843 545.417 1021.47 554.445C1030.56 555.463 1040.29 557.837 1049.33 557.018C1075.01 562.53 1087.69 562.416 1111.7 565.021C1119.5 563.273 1159.34 565.507 1170.25 564.664C1177.01 564.142 1175.35 561.998 1182.13 561.794L1210.13 569.481L1217.56 571.042C1220.86 573.662 1236.11 576.638 1241.15 577.811C1259.77 582.992 1278.79 587.216 1297.38 592.593C1349.69 607.817 1401.32 625.269 1452.14 644.899C1416.12 656.043 1384.67 666.395 1349.61 680.328C1341.98 683.361 1311.71 696.706 1307.21 697.836C1293.41 703.812 1262.18 716.66 1249.94 724H1033.69C1058.5 710.874 1112.75 704.398 1130.75 681.535C1125.89 675.767 1120.14 671.838 1113.81 667.893C1029.92 615.374 804.893 563.056 704.663 563.114C703.496 562.782 695.606 562.795 692.872 562.437L693.979 561.126C702.463 560.63 710.951 560.219 719.443 559.895C721.849 559.466 724.245 558.983 726.629 558.445C743.666 557.648 761.377 554.738 778.894 553.928Z" fill="#B4B779"/>
<path d="M719.443 559.895C745.139 560.953 770.548 561.05 796.171 562.26C836.439 564.107 876.618 567.57 916.609 572.641C932.637 574.61 951.879 576.665 967.663 579.678C979.397 581.15 990.395 583.359 1001.97 585.617C1095.77 603.602 1235.27 634.462 1307.21 697.836C1293.41 703.812 1262.18 716.66 1249.94 724H1033.69C1058.5 710.874 1112.75 704.398 1130.75 681.535C1125.89 675.767 1120.14 671.838 1113.81 667.893C1029.92 615.374 804.893 563.056 704.663 563.114C703.496 562.782 695.606 562.795 692.872 562.437L693.979 561.126C702.463 560.63 710.951 560.219 719.443 559.895Z" fill="#FBD690"/>
<path d="M967.663 579.678C995.583 568.897 1066.66 563.869 1096.4 566.782C1076.65 566.865 1017.55 575.233 1001.97 585.617C990.395 583.359 979.397 581.15 967.663 579.678Z" fill="#BEC294"/>
<path d="M1113.81 667.893C1120.14 671.838 1125.89 675.767 1130.75 681.535C1112.75 704.398 1058.5 710.874 1033.69 724H806.749C810.566 722.092 835.756 715.119 841.255 713.521C930.212 688.601 1021.59 673.304 1113.81 667.893Z" fill="#9EA866"/>
<path d="M585.499 553.785C590.255 565.113 604.338 573.446 616.295 572.325L616.131 572.931C600.577 576.534 583.114 580.334 567.87 584.774C580.52 575.633 578.773 569.705 574.675 556.072C578.104 554.849 581.892 554.374 585.499 553.785Z" fill="#9EA866"/>
<path d="M674.688 563.269C680.592 562.395 688.152 561.03 693.979 561.126L692.872 562.437C695.606 562.795 703.496 562.782 704.663 563.114C700.869 564.581 679.47 563.951 674.688 563.269Z" fill="#BEC294"/>
<path d="M437.564 578.13C452.749 549.912 464.919 550.743 475.693 580.81C477.864 582.068 480.468 581.019 483.453 580.519C496.113 576.995 512.467 572.164 525.127 569.453C529.481 589.111 546.823 578.154 550.012 589.327L550.158 589.962C528.744 595.091 502.798 605.213 482.155 613.017C418.953 636.907 358.272 666.578 299.447 699.738C290.881 704.567 263.136 719.253 256.91 724H0V674.556C82.9276 655.68 166.209 638.391 249.797 622.699L323.425 609.128C338.789 606.368 358.419 602.462 373.735 601.311C374.983 594.413 380.409 580.191 388.857 580.855C395.048 584.154 396.488 590.362 399.114 596.935C403.637 595.699 406.976 595.243 411.593 594.575C415.819 581.673 422.815 565.568 437.564 578.13Z" fill="#9EA866"/>
<path d="M437.564 578.13C452.749 549.912 464.919 550.743 475.693 580.81C477.864 582.068 480.468 581.019 483.453 580.519C488.74 585.192 495.895 596.011 489.629 601.853C482.573 608.432 463.642 608.121 454.442 608.132C453.608 608.132 452.774 608.125 451.941 608.109C452.313 604.516 452.946 604.224 451.565 601.519C449.198 604.102 449.11 606.139 448.399 609.869C448.239 609.801 425.656 613.391 421.993 613.688L421.476 613.374C419.974 612.444 416.178 610.484 415.17 609.231C410.744 603.736 410.516 599.258 402.246 599.866C400.869 602.471 401.971 606.616 402.009 610.62C395.781 618.493 390.771 612.342 389.512 623.734L388.012 624.9C384.437 622.058 388.052 619.87 385.121 617.592C380.155 613.731 376.528 616.109 372.897 611.53C371.865 607.49 372.724 605.288 373.735 601.311C374.983 594.413 380.409 580.191 388.857 580.855C395.048 584.154 396.488 590.362 399.114 596.935C403.637 595.699 406.976 595.243 411.593 594.575C415.819 581.673 422.815 565.568 437.564 578.13Z" fill="#94A26B"/>
<path d="M448.399 609.869C449.11 606.139 449.198 604.102 451.565 601.519C452.946 604.224 452.313 604.516 451.941 608.109C452.085 612.193 452.746 616.305 450.474 619.6L449.222 619.677C447.524 616.07 448.037 613.781 448.399 609.869Z" fill="#8F9059"/>
<path d="M585.499 553.785C587.28 540.601 606.835 466.179 619.449 461.948C631.417 467.352 646.274 529.036 650.553 543.773C658.093 542.86 665.267 542.112 672.691 540.41C670.704 545.109 669.357 548.336 667.943 553.226C668.939 555.721 670.82 560.984 672.302 562.937C664.541 564.287 656.622 565.771 648.817 566.736C642.217 567.904 625.8 570.432 620.156 572.256L616.131 572.931L616.295 572.325C604.338 573.446 590.255 565.113 585.499 553.785Z" fill="#94A26B"/>
<path d="M650.553 543.773C658.093 542.86 665.267 542.112 672.691 540.41C670.704 545.109 669.357 548.336 667.943 553.226C668.939 555.721 670.82 560.984 672.302 562.937C664.541 564.287 656.622 565.771 648.817 566.736C654.546 559.193 652.223 552.331 650.553 543.773Z" fill="#9EA866"/>
<path d="M616.295 572.325L616.452 571.67C617.771 566.041 616.255 565.009 618.771 559.639C620.429 561.751 620.196 569.421 620.156 572.256L616.131 572.931L616.295 572.325Z" fill="#8F9059"/>
<path d="M774.772 533.282C873.025 529.121 952.804 533.901 1049.33 557.018C1040.29 557.837 1030.56 555.463 1021.47 554.445C940.843 545.417 859.694 550.133 778.894 553.928C778.929 546.974 777.338 539.732 774.772 533.282Z" fill="#ADAF66"/>
<path d="M525.127 569.453C525.215 568.905 525.31 568.357 525.411 567.811C527.492 556.422 539.637 514.104 548.689 504.903C550.104 503.465 551.961 504.097 553.61 504.519C561.081 510.692 571.649 545.655 574.675 556.072C578.773 569.705 580.52 575.633 567.87 584.774L552.962 588.78L550.158 589.962L550.012 589.327C546.823 578.154 529.481 589.111 525.127 569.453Z" fill="#94A26B"/>
<path d="M550.012 589.327C549.988 585.099 549.594 580.807 551.26 576.975L552.217 577.122C553.556 581.42 553.165 584.322 552.962 588.78L550.158 589.962L550.012 589.327Z" fill="#8F9059"/>
<path d="M724.27 535.706C729.959 528.427 739.508 478.366 753.081 481.409C761.054 487.687 771.81 522.37 774.772 533.282C777.338 539.732 778.929 546.974 778.894 553.928C761.377 554.738 743.666 557.648 726.629 558.445L724.869 557.407C720.877 549.216 723.724 545.002 724.27 535.706Z" fill="#9EA866"/>
<path d="M672.691 540.41C675.92 537.982 677.116 525.584 686.309 526.577C689.529 528.899 691.138 534.955 692.469 538.907C695.906 545.291 704.808 557.732 693.979 561.126C688.152 561.03 680.592 562.395 674.688 563.269L672.302 562.937C670.82 560.984 668.939 555.721 667.943 553.226C669.357 548.336 670.704 545.109 672.691 540.41Z" fill="#94A26B"/>
<path d="M692.469 538.907C703.087 538.028 713.689 536.961 724.27 535.706C723.724 545.002 720.877 549.216 724.869 557.407L726.629 558.445C724.245 558.983 721.849 559.466 719.443 559.895C710.951 560.219 702.463 560.63 693.979 561.126C704.808 557.732 695.906 545.291 692.469 538.907Z" fill="#ADAF66"/>
<path d="M1766.83 482.111C1769.45 477.534 1861 430.771 1872.34 425.247C1903.12 410.221 1934.68 396.833 1966.88 385.138C2051.47 355.074 2087.75 367.039 2172 396.074V522.422V588.658V724H1583.72H1249.94C1262.18 716.66 1293.41 703.812 1307.21 697.836C1311.71 696.706 1341.98 683.361 1349.61 680.328C1384.67 666.395 1416.12 656.043 1452.14 644.899C1401.32 625.269 1349.69 607.817 1297.38 592.593C1278.79 587.216 1259.77 582.992 1241.15 577.811C1236.11 576.638 1220.86 573.662 1217.56 571.042L1210.13 569.481L1182.13 561.794L1182.3 561.243C1184.51 559.623 1195.45 557.878 1201.22 554.942C1219.88 539.267 1227.72 525.874 1252.32 525.521C1254.07 525.817 1260.12 528.677 1262.18 529.546C1277.89 536.16 1292.62 541.685 1309.31 545.062C1330.23 537.557 1352.52 531.805 1373.83 524.296C1416.65 509.208 1460.07 491.807 1504.06 480.711C1521.05 475.215 1543.08 471.497 1560.75 468.48C1645.04 458.317 1687.48 470.166 1766.83 482.111Z" fill="#94A26B"/>
<path d="M1766.83 482.111C1769.45 477.534 1861 430.771 1872.34 425.247C1903.12 410.221 1934.68 396.833 1966.88 385.138C2051.47 355.074 2087.75 367.039 2172 396.074V522.422V588.658C2166.4 587.215 2162.77 586.399 2157.06 585.585C2147.94 584.862 2134.46 582.266 2125.06 580.86C2110.25 578.673 2095.38 576.932 2080.47 575.64C2081.26 580.912 2081.76 583.188 2083.36 588.266C2083.35 601.612 2077.75 606.291 2064.5 607.29C2064.55 604.518 2064.87 602.238 2063.48 599.866C2061.38 602.126 2061.59 603.844 2060.88 607.163C2047.94 606.225 2044.76 601.012 2041.67 589.02C2034.81 601.618 2022.87 603.345 2009.74 605.313L2009.55 616.394C2007.53 618.238 2008.57 617.774 2005.47 617.891L2003.76 616.51C2003.63 612.778 2004.46 607.719 2003.02 605.284C2000.2 604.758 1999.02 604.49 1996.16 604.595C1991 607.851 1981.24 607.884 1975.03 608.266C1968.41 613.061 1965.27 613.071 1957.7 616.055C1957.65 616.076 1957.27 618.348 1957.19 618.688C1956.39 622.253 1957.98 622.246 1955.54 624.136C1950.31 615.425 1950.67 615.068 1940.25 612.432C1923.95 600.22 1934.71 586.39 1938.9 570.153C1938.94 569.921 1938.99 569.688 1939.04 569.456C1942.71 562.384 1945.6 537.925 1956.12 540.285C1962.73 545.759 1967.91 561.884 1970.78 570.321C1973.18 559.664 1975 551.433 1978.52 541.149C1970.59 539.2 1959.3 534.829 1951.38 532.043C1934.49 525.997 1917.51 520.196 1900.45 514.642C1854.46 500.174 1813.92 491.48 1766.97 482.57C1759.17 484.976 1718.4 483.378 1707.45 483.415C1585.86 483.826 1492.12 538.96 1387.86 594.388C1329.37 579.565 1297.58 570.06 1235.96 570.005C1229.67 569.871 1223.74 569.503 1217.56 571.042L1210.13 569.481L1182.13 561.794L1182.3 561.243C1184.51 559.623 1195.45 557.878 1201.22 554.942C1219.88 539.267 1227.72 525.874 1252.32 525.521C1254.07 525.817 1260.12 528.677 1262.18 529.546C1277.89 536.16 1292.62 541.685 1309.31 545.062C1330.23 537.557 1352.52 531.805 1373.83 524.296C1416.65 509.208 1460.07 491.807 1504.06 480.711C1521.05 475.215 1543.08 471.497 1560.75 468.48C1645.04 458.317 1687.48 470.166 1766.83 482.111Z" fill="#B4B779"/>
<path d="M1978.52 541.149C1982.24 528.891 1995.63 467.601 2009.98 471.672C2022.07 481.741 2036.03 546.849 2041.31 563.906C2045.35 561.77 2046.72 561.5 2051.09 560.494C2053.7 554.235 2057.48 540.086 2065.84 542.98C2069.18 545.811 2070.68 550.828 2072.37 555.003C2074.95 561.962 2077.41 568.878 2080.47 575.64C2081.26 580.912 2081.76 583.188 2083.36 588.266C2083.35 601.612 2077.75 606.291 2064.5 607.29C2064.55 604.518 2064.87 602.238 2063.48 599.866C2061.38 602.126 2061.59 603.844 2060.88 607.163C2047.94 606.225 2044.76 601.012 2041.67 589.02C2034.81 601.618 2022.87 603.345 2009.74 605.313L2009.55 616.394C2007.53 618.238 2008.57 617.774 2005.47 617.891L2003.76 616.51C2003.63 612.778 2004.46 607.719 2003.02 605.284C2000.2 604.758 1999.02 604.49 1996.16 604.595C1991 607.851 1981.24 607.884 1975.03 608.266C1968.41 613.061 1965.27 613.071 1957.7 616.055C1957.65 616.076 1957.27 618.348 1957.19 618.688C1956.39 622.253 1957.98 622.246 1955.54 624.136C1950.31 615.425 1950.67 615.068 1940.25 612.432C1923.95 600.22 1934.71 586.39 1938.9 570.153C1938.94 569.921 1938.99 569.688 1939.04 569.456C1942.71 562.384 1945.6 537.925 1956.12 540.285C1962.73 545.759 1967.91 561.884 1970.78 570.321C1973.18 559.664 1975 551.433 1978.52 541.149Z" fill="#859458"/>
<path d="M1975.03 608.266C1977.04 604.46 1976.96 602.215 1979.23 598.524C1981.88 597.874 1989.73 602.791 1996.16 604.595C1991 607.851 1981.24 607.884 1975.03 608.266Z" fill="#ADAF66"/>
<path d="M2051.09 560.494C2049.25 566.04 2047.55 572.966 2044.03 577.528C2043.32 571.962 2043.02 569.215 2041.31 563.906C2045.35 561.77 2046.72 561.5 2051.09 560.494Z" fill="#94A26B"/>
<path d="M2072.37 555.003C2096.29 541.139 2144.82 527.989 2172 522.422V588.658C2166.4 587.215 2162.77 586.399 2157.06 585.585C2147.94 584.862 2134.46 582.266 2125.06 580.86C2110.25 578.673 2095.38 576.932 2080.47 575.64C2077.41 568.878 2074.95 561.962 2072.37 555.003Z" fill="#94A26B"/>
<path d="M1182.3 561.243C1184.51 559.623 1195.45 557.878 1201.22 554.942L1201.9 556.837C1206.8 558.787 1254.15 555.695 1262.73 555.192C1250.6 562.3 1224.3 566.775 1210.13 569.481L1182.13 561.794L1182.3 561.243Z" fill="#BEC294"/>
<path d="M2080.47 575.64C2095.38 576.932 2110.25 578.673 2125.06 580.86C2134.46 582.266 2147.94 584.862 2157.06 585.585C2162.77 586.399 2166.4 587.215 2172 588.658V724H1583.72C1586.74 721.553 1610.18 711.392 1615.25 709.169C1674.43 682.703 1735.49 660.648 1797.93 643.186C1813.14 638.847 1843.5 630.276 1858.48 628.612C1860.36 620.592 1863.91 610.277 1866.68 602.384C1885.39 549.12 1895.96 595.104 1904.93 619.91C1914.07 618.779 1931.78 615.592 1940.25 612.432C1950.67 615.068 1950.31 615.425 1955.54 624.136C1957.98 622.246 1956.39 622.253 1957.19 618.688C1957.27 618.348 1957.65 616.076 1957.7 616.055C1965.27 613.071 1968.41 613.061 1975.03 608.266C1981.24 607.884 1991 607.851 1996.16 604.595C1999.02 604.49 2000.2 604.758 2003.02 605.284C2004.46 607.719 2003.63 612.778 2003.76 616.51L2005.47 617.891C2008.57 617.774 2007.53 618.238 2009.55 616.394L2009.74 605.313C2022.87 603.345 2034.81 601.618 2041.67 589.02C2044.76 601.012 2047.94 606.225 2060.88 607.163C2061.59 603.844 2061.38 602.126 2063.48 599.866C2064.87 602.238 2064.55 604.518 2064.5 607.29C2077.75 606.291 2083.35 601.612 2083.36 588.266C2081.76 583.188 2081.26 580.912 2080.47 575.64Z" fill="#9EA866"/>
<path d="M1858.48 628.612C1860.36 620.592 1863.91 610.277 1866.68 602.384C1885.39 549.12 1895.96 595.104 1904.93 619.91C1900.65 627.821 1929.87 665.27 1885.35 666.547C1885.54 671.641 1886.12 673.761 1883.24 677.537L1881.48 677.261C1879.21 674.307 1879.89 670.562 1880.06 666.756C1866.23 665.507 1858.64 661.432 1852.34 648.968C1853.86 642.208 1856.31 635.228 1858.48 628.612Z" fill="#859458"/>
<path d="M1880.06 666.756C1880.78 663.111 1881.98 655.117 1883.45 652.199C1883.42 653.23 1885.12 663.889 1885.35 666.547C1885.54 671.641 1886.12 673.761 1883.24 677.537L1881.48 677.261C1879.21 674.307 1879.89 670.562 1880.06 666.756Z" fill="#8F9059"/>
<path d="M2080.47 575.64C2095.38 576.932 2110.25 578.673 2125.06 580.86C2134.46 582.266 2147.94 584.862 2157.06 585.585C2158.74 586.243 2160.19 586.81 2161.93 587.351C2161.31 587.953 2093.01 594.166 2085.29 594.132C2083.89 592.039 2083.8 590.733 2083.36 588.266C2081.76 583.188 2081.26 580.912 2080.47 575.64Z" fill="#ADAF66"/>
<path d="M2060.88 607.163C2061.59 603.844 2061.38 602.126 2063.48 599.866C2064.87 602.238 2064.55 604.518 2064.5 607.29C2064.52 610.669 2065.1 613.161 2062.42 615.353C2060.39 612.175 2061.01 611.244 2060.88 607.163Z" fill="#8F9059"/>
<path d="M1639.03 600.504C1663.09 597.406 1690.22 591.093 1715.27 587.514C1789.31 576.454 1864.04 570.652 1938.9 570.153C1934.71 586.39 1923.95 600.22 1940.25 612.432C1931.78 615.592 1914.07 618.779 1904.93 619.91C1895.96 595.104 1885.39 549.12 1866.68 602.384C1863.91 610.277 1860.36 620.592 1858.48 628.612C1843.5 630.276 1813.14 638.847 1797.93 643.186C1735.49 660.648 1674.43 682.703 1615.25 709.169C1610.18 711.392 1586.74 721.553 1583.72 724H1249.94C1262.18 716.66 1293.41 703.812 1307.21 697.836C1311.71 696.706 1341.98 683.361 1349.61 680.328C1384.67 666.395 1416.12 656.043 1452.14 644.899C1484.07 635.453 1516.28 627.003 1548.73 619.561C1578.78 612.953 1608.88 606.6 1639.03 600.504Z" fill="#ADAF66"/>
<path d="M1548.73 619.561C1551.14 610.656 1562.09 585.903 1572.08 584.343C1575.28 585.593 1577.65 590.277 1580.51 593.362C1585.24 591.587 1588.13 572.625 1592.88 566.284C1598.51 558.751 1598.82 558.281 1606.73 552.333C1619.88 561.773 1615.74 562.424 1623.74 576.492L1624.37 576.671C1636.6 580.269 1637.17 588.673 1639.03 600.504C1608.88 606.6 1578.78 612.953 1548.73 619.561Z" fill="#859458"/>
<path d="M1190.81 491.879C1190.34 485.115 1190 478.344 1189.76 471.568C1188.55 422.997 1208.19 376.284 1241.55 341.293C1276.14 305.064 1323.77 284.154 1373.85 283.21C1421.88 282.289 1468.32 300.39 1503.06 333.566C1541.85 370.646 1559.54 415.518 1560.75 468.48C1543.08 471.497 1521.05 475.215 1504.06 480.711C1460.07 491.807 1416.65 509.208 1373.83 524.296C1352.52 531.805 1330.23 537.557 1309.31 545.062C1292.62 541.685 1277.89 536.16 1262.18 529.546C1260.12 528.677 1254.07 525.817 1252.32 525.521C1246.22 521.401 1228.25 512.635 1220.18 508.067C1210.41 502.278 1200.85 497.201 1190.81 491.879Z" fill="#FBD690"/>
<path d="M1220.18 508.067C1307.66 431.775 1405.08 414.328 1504.06 480.711C1460.07 491.807 1416.65 509.208 1373.83 524.296C1352.52 531.805 1330.23 537.557 1309.31 545.062C1292.62 541.685 1277.89 536.16 1262.18 529.546C1260.12 528.677 1254.07 525.817 1252.32 525.521C1246.22 521.401 1228.25 512.635 1220.18 508.067Z" fill="#FAC37E"/>
<path d="M1004.51 500.272C1010.11 497.229 1034 488.761 1041.58 486.052C1103.68 463.836 1132.37 464.55 1190.81 491.879C1200.85 497.201 1210.41 502.278 1220.18 508.067C1228.25 512.635 1246.22 521.401 1252.32 525.521C1227.72 525.874 1219.88 539.267 1201.22 554.942C1195.45 557.878 1184.51 559.623 1182.3 561.243C1124.56 547.507 1059.82 521.524 1004.51 500.272Z" fill="#F2DDB3"/>
<path d="M345.493 439.506C345.8 438.714 346.124 437.929 346.465 437.151C357.693 411.585 387.435 402.262 406.447 425.681C411.054 431.357 412.588 435.818 415.174 442.703C415.943 442.608 416.716 442.553 417.49 442.536C429.112 442.201 432.786 445.619 440.797 453.118C436.81 455.164 417.916 465.023 414.33 465.719C390.584 461.475 243.77 468.241 236.617 463.8C237.159 458.296 249.662 458.066 250.463 456.396C259.436 437.672 267.66 445.845 281.977 450.813C281.562 450.669 291.955 448.426 294.263 448.168C306.946 424.92 326.17 418.489 345.493 439.506Z" fill="#F2DDB3"/>
<path d="M386.487 114.377C386.809 114.343 387.13 114.311 387.452 114.281C437.601 109.659 478.775 148.465 483.145 197.617L484.145 197.164C514.323 183.605 538.63 194.664 551.72 224.33C584.184 214.2 603.719 230.193 616.415 259.341C587.244 260.47 550.3 259.507 520.537 259.495L355.763 259.408C347.94 259.797 338.636 259.672 330.771 259.521C267.116 258.292 202.087 261.298 138.603 259.306C151.581 236.415 171.499 227.009 196.84 235.39C210.165 185.855 254.11 172.158 292.676 206.392C301.919 157.268 335.318 119.656 386.487 114.377Z" fill="#FDFCF8"/>
<path d="M1927.38 151.41C1960.05 148.906 1980.93 175.415 1988.82 204.034C2018.95 190.904 2040.52 206.954 2047.06 237.34C2063.49 238.546 2069.73 247.022 2075.88 261.227L1903.25 261.238L1754.93 261.221C1763.24 248.777 1760.71 254.843 1770.71 248.918C1785.48 240.162 1787.79 229.319 1808.01 240.397C1820.1 217.48 1840.28 207.027 1864.81 218.117C1870.31 182.518 1890.28 156.215 1927.38 151.41Z" fill="#F2DDB3"/>
<path d="M775.155 299.239C781.827 298.207 788.655 299.245 794.719 302.212C805.681 307.538 811.362 316.28 815.192 327.385C841.139 314.226 841.321 327.899 856.645 340.152C857.392 340.749 864.353 340.359 866.256 340.564C874.989 341.508 880.045 349.248 885.123 355.723C862.74 356.283 839.045 355.876 816.566 355.837L704.586 355.832C711.505 339.52 724.035 325.579 743.251 333.888C748.319 315.402 756.459 304.684 775.155 299.239Z" fill="#F2DDB3"/>
</g>
<defs>
<clipPath id="clip0_4_17">
<rect width="2172" height="724" fill="white"/>
</clipPath>
</defs>
</svg>
